<svg xmlns="http://www.w3.org/2000/svg" height="160" width="250" xmlns:v="https://vecta.io/nano"><g transform="matrix(-1 0 0 -1 250 160)"><g clip-path="url(#A)"><path fill="transparent" d="M0 0h250v160H0z"/><g fill="#101312"><path d="M250.352.254l-50.953 73.505-1.476 2.172-.686 1.117-.332.566-.314.576c-1.667 3.072-2.88 6.395-3.533 9.829s-.757 6.969-.298 10.433 1.477 6.85 2.986 10.001c.753 1.575 1.623 3.096 2.596 4.547l45.075 64.77c.5.721 1.018 1.436 1.486 2.186.246.366.464.751.693 1.128s.437.766.651 1.153a35.31 35.31 0 0 1 2.164 4.831c1.198 3.323 1.867 6.84 1.96 10.373a33.19 33.19 0 0 1-1.398 10.469c-1.019 3.387-2.572 6.606-4.543 9.539l-47.912 69.216-.621-.431 48.063-69.1c1.949-2.884 3.485-6.05 4.494-9.381s1.487-6.819 1.398-10.297c-.083-3.48-.734-6.943-1.907-10.22a34.54 34.54 0 0 0-2.123-4.767c-.209-.381-.411-.768-.639-1.14s-.438-.753-.682-1.115c-.46-.74-.969-1.447-1.467-2.168l-44.933-64.88c-.977-1.464-1.851-2.998-2.606-4.589-1.513-3.179-2.535-6.595-2.986-10.088s-.344-7.056.324-10.511 1.894-6.799 3.579-9.886l.317-.579c.108-.192.225-.379.336-.568.225-.377.449-.757.692-1.123.466-.745.989-1.453 1.487-2.176L250.361.258l-.009-.004z"/><path d="M250.352.254l-48.867 74.783c-.981 1.447-1.879 2.949-2.652 4.516-1.553 3.129-2.632 6.493-3.147 9.947a32.84 32.84 0 0 0 .121 10.424c.592 3.44 1.743 6.777 3.358 9.87.805 1.547 1.726 3.034 2.745 4.451l3.121 4.223 43.642 59.222.783 1.059.39.532.747 1.091.71 1.117.334.57a35.53 35.53 0 0 1 2.332 4.744c1.317 3.272 2.122 6.755 2.354 10.278a32.85 32.85 0 0 1-.988 10.504c-.887 3.419-2.325 6.689-4.189 9.686l-45.94 70.423-.632-.413 46.091-70.309c1.843-2.947 3.262-6.161 4.143-9.523.887-3.361 1.223-6.863.996-10.334a32.9 32.9 0 0 0-2.298-10.127c-.645-1.616-1.413-3.182-2.29-4.684l-.328-.564-.698-1.102-.736-1.079-.387-.527-.777-1.055-43.51-59.322-3.115-4.236c-1.023-1.431-1.947-2.933-2.757-4.493-1.62-3.121-2.773-6.488-3.364-9.956s-.628-7.027-.098-10.503a33.83 33.83 0 0 1 3.191-10.005c.781-1.574 1.688-3.083 2.677-4.533L250.346.256l.006-.002z"/><path d="M250.352.254l-46.735 76.022a36.02 36.02 0 0 0-2.494 4.599c-1.434 3.18-2.379 6.582-2.754 10.05s-.189 6.993.539 10.401 2.004 6.697 3.726 9.726c.861 1.515 1.831 2.968 2.895 4.35l3.23 4.134 45.168 57.967.81 1.036c.271.346.545.689.8 1.05s.524.707.764 1.077.5.725.726 1.102c.943 1.487 1.781 3.042 2.496 4.653 1.434 3.22 2.375 6.664 2.741 10.172s.176 7.076-.581 10.522-2.064 6.766-3.818 9.825l-43.928 71.596-.643-.397 44.08-71.482c1.736-3.006 3.032-6.268 3.779-9.659.753-3.39.949-6.898.594-10.353s-1.273-6.848-2.679-10.025a35.33 35.33 0 0 0-2.452-4.595c-.223-.374-.476-.729-.715-1.091s-.498-.711-.753-1.064c-.249-.355-.521-.697-.789-1.04l-45.844-59.103-3.224-4.146c-1.068-1.395-2.041-2.861-2.906-4.389-1.728-3.057-3.007-6.373-3.733-9.811a33.06 33.06 0 0 1-.521-10.48c.385-3.493 1.345-6.916 2.796-10.112a36.27 36.27 0 0 1 2.517-4.618L250.35.254h.002z"/><path d="M250.352.254l-44.563 77.224c-.887 1.502-1.664 3.066-2.319 4.682-1.311 3.229-2.122 6.663-2.36 10.139a32.67 32.67 0 0 0 .949 10.362c.86 3.375 2.26 6.608 4.085 9.572 1.796 2.993 4.182 5.565 6.373 8.292l46.655 56.694 1.666 2.034c.266.351.543.692.798 1.049l.762 1.077c.993 1.453 1.883 2.976 2.657 4.559 1.545 3.165 2.611 6.567 3.113 10.054s.456 7.056-.164 10.528-1.8 6.837-3.444 9.954l-41.874 72.732-.653-.378 42.027-72.618c1.625-3.065 2.795-6.371 3.41-9.784s.673-6.924.185-10.358-1.529-6.79-3.046-9.913a35.89 35.89 0 0 0-2.609-4.502c-.241-.36-.5-.71-.751-1.064s-.524-.693-.786-1.04c-.538-.683-1.102-1.345-1.653-2.027l-49.855-60.854c-1.111-1.357-2.134-2.787-3.051-4.284-1.834-2.991-3.236-6.251-4.096-9.656a32.94 32.94 0 0 1-.934-10.442c.247-3.5 1.072-6.958 2.398-10.203.662-1.623 1.449-3.197 2.343-4.703L250.35.258l.002-.004z"/><path d="M250.352.254l-39.856 73.775c-1.619 3.095-3.483 6.072-4.633 9.369-1.187 3.274-1.859 6.735-1.955 10.214a33.09 33.09 0 0 0 1.353 10.311c.988 3.338 2.507 6.512 4.433 9.41.964 1.45 2.027 2.831 3.178 4.139l53.256 61.337.832 1.023.796 1.051a37.38 37.38 0 0 1 2.804 4.463c1.655 3.104 2.849 6.459 3.487 9.922s.735 7.027.252 10.518-1.532 6.899-3.06 10.069l-.594 1.18-.632 1.154-38.554 71.492-.664-.358 38.718-71.415.628-1.143c.204-.383.391-.774.589-1.159 1.511-3.117 2.554-6.467 3.032-9.899s.398-6.939-.225-10.349-1.786-6.719-3.413-9.784c-.811-1.532-1.736-3.006-2.756-4.412l-.783-1.039-.819-1.012-53.113-61.452a39.32 39.32 0 0 1-3.191-4.176c-1.934-2.923-3.458-6.126-4.447-9.494a33.32 33.32 0 0 1-1.339-10.39c.106-3.506.789-6.99 1.99-10.28a35.35 35.35 0 0 1 2.164-4.784L250.356.246l-.004.008z"/><path d="M250.352.254l-40.092 79.5c-.773 1.56-1.432 3.176-1.96 4.834-1.06 3.316-1.59 6.799-1.547 10.279s.645 6.948 1.76 10.243 2.738 6.416 4.764 9.242a39.29 39.29 0 0 0 3.311 4.029l54.808 59.887c.292.326.573.664.86.996s.551.683.828 1.025c1.081 1.383 2.072 2.842 2.951 4.362 1.762 3.042 3.079 6.347 3.849 9.781s1.011 6.988.666 10.494-1.264 6.95-2.677 10.173l-.551 1.198c-.191.396-.396.783-.594 1.175l-36.498 72.513-.674-.34 36.664-72.435.591-1.16.545-1.18c1.398-3.168 2.311-6.552 2.654-9.999a32.54 32.54 0 0 0-.634-10.328c-.752-3.383-2.041-6.642-3.771-9.646a37.21 37.21 0 0 0-2.904-4.312l-.815-1.013-.849-.987-1.762-1.931-52.908-58.075c-1.194-1.279-2.309-2.638-3.324-4.064-2.036-2.853-3.662-6.001-4.779-9.324a33.6 33.6 0 0 1-1.751-10.322c-.035-3.504.508-7.012 1.581-10.345.536-1.668 1.202-3.293 1.983-4.859L250.348.254h.004z"/><path d="M250.352.254l-37.794 80.574a34.09 34.09 0 0 0-1.775 4.903c-.93 3.353-1.321 6.854-1.136 10.328s.925 6.914 2.162 10.161 2.976 6.303 5.087 9.064c1.054 1.383 2.205 2.689 3.435 3.921l54.493 56.539 1.821 1.885c.601.636 1.192 1.289 1.75 1.964 1.125 1.348 2.162 2.771 3.095 4.259 1.864 2.978 3.301 6.228 4.205 9.628s1.273 6.942 1.068 10.456-.991 6.991-2.283 10.262c-.151.413-.336.813-.508 1.217s-.366.798-.551 1.196l-1.113 2.372-33.29 71.118-.683-.321 33.453-71.048 1.116-2.364c.185-.393.383-.78.548-1.18s.352-.79.501-1.196a32.67 32.67 0 0 0 2.268-10.086 32.45 32.45 0 0 0-1.028-10.292c-.881-3.35-2.29-6.557-4.122-9.499-.915-1.472-1.936-2.878-3.045-4.212a38.39 38.39 0 0 0-1.727-1.946l-1.811-1.883-54.366-56.663c-1.232-1.24-2.392-2.561-3.451-3.956-2.12-2.787-3.864-5.866-5.105-9.144s-1.981-6.742-2.155-10.241a32.52 32.52 0 0 1 1.168-10.396c.47-1.687 1.074-3.334 1.796-4.929L250.352.254z"/><path d="M250.352.254l-33.368 76.804-2.079 4.799c-.654 1.612-1.188 3.272-1.586 4.965a32.32 32.32 0 0 0-.73 10.36c.313 3.464 1.196 6.87 2.554 10.067s3.202 6.187 5.403 8.876c1.102 1.346 2.289 2.618 3.555 3.814l55.906 55.107c1.233 1.228 2.518 2.426 3.679 3.745 1.166 1.31 2.248 2.697 3.23 4.154 1.962 2.911 3.522 6.102 4.546 9.469 1.027 3.362 1.538 6.886 1.468 10.403s-.715 7.022-1.885 10.339c-.573 1.666-1.337 3.251-2.015 4.853l-31.226 72.024-.692-.302 31.39-71.958c.685-1.607 1.442-3.172 2.01-4.806 1.158-3.261 1.803-6.702 1.875-10.161s-.419-6.928-1.421-10.241-2.532-6.467-4.462-9.345a38.79 38.79 0 0 0-3.181-4.108c-1.141-1.306-2.409-2.493-3.645-3.729l-55.781-55.233a41.33 41.33 0 0 1-3.568-3.845c-2.211-2.714-4.061-5.727-5.424-8.954s-2.243-6.66-2.55-10.149c-.314-3.487-.055-7.025.758-10.43.404-1.702.945-3.372 1.607-4.991l2.093-4.801L250.354.254h-.002z"/><path d="M250.352.254l-32.59 81.368-.47 1.217c-.594 1.634-1.062 3.314-1.394 5.021a32.2 32.2 0 0 0-.317 10.379 33.79 33.79 0 0 0 2.93 9.964c1.477 3.147 3.424 6.066 5.711 8.682 1.141 1.311 2.377 2.536 3.667 3.706l57.279 53.661c1.263 1.198 2.578 2.359 3.781 3.64a39.8 39.8 0 0 1 3.364 4.046c2.062 2.84 3.721 5.982 4.872 9.303s1.799 6.82 1.869 10.337a32.81 32.81 0 0 1-1.483 10.403c-.258.84-.554 1.67-.877 2.485l-.979 2.433-29.128 72.886-.7-.281 29.294-72.828.979-2.421c.323-.804.613-1.619.87-2.446a32.27 32.27 0 0 0 1.481-10.223c-.06-3.459-.691-6.905-1.817-10.179s-2.753-6.374-4.783-9.182c-1.013-1.406-2.122-2.742-3.313-4.003-1.183-1.266-2.484-2.419-3.748-3.625l-57.159-53.791c-1.29-1.176-2.534-2.413-3.681-3.736-2.298-2.64-4.252-5.586-5.733-8.76-1.487-3.17-2.479-6.572-2.93-10.044a32.5 32.5 0 0 1 .341-10.45 33.42 33.42 0 0 1 1.415-5.048c.144-.413.31-.819.474-1.223L250.352.252v.002z"/><path d="M250.352.254l-29.758 81.057-.876 2.461a32.89 32.89 0 0 0-1.2 5.07c-.532 3.436-.496 6.957.095 10.382s1.716 6.756 3.303 9.849 3.636 5.944 6.004 8.486l.445.475.917.925.473.447c.623.608 1.293 1.164 1.94 1.747l60.565 53.943a41.68 41.68 0 0 1 1.923 1.792c1.245 1.236 2.417 2.548 3.488 3.938 2.147 2.778 3.917 5.854 5.191 9.13s2.058 6.746 2.264 10.258-.163 7.057-1.081 10.454l-.368 1.266-.417 1.251-.91 2.461-26.996 73.705-.707-.261 27.164-73.65.909-2.446c.145-.407.276-.82.413-1.23.129-.413.244-.83.364-1.245a32.09 32.09 0 0 0 1.087-10.275c-.194-3.455-.96-6.873-2.207-10.101s-2.985-6.269-5.098-9.015c-1.057-1.373-2.211-2.674-3.438-3.896-.615-.61-1.245-1.208-1.899-1.78l-60.443-54.078c-.648-.585-1.319-1.147-1.944-1.759l-.475-.451-.921-.936c-.153-.156-.298-.32-.447-.481-2.379-2.564-4.437-5.438-6.028-8.559s-2.719-6.475-3.305-9.928-.615-6.997-.072-10.454c.27-1.728.681-3.436 1.219-5.099.258-.836.587-1.647.885-2.468L250.352.252v.002z"/><path d="M250.352.254L222.973 82.16l-.417 1.238-.378 1.249c-.469 1.676-.807 3.387-1.005 5.114a32.13 32.13 0 0 0 .504 10.373c.722 3.4 1.977 6.685 3.673 9.72s3.83 5.821 6.281 8.286c.298.317.622.607.932.911s.637.591.96.881l.487.434.5.419 1 .842 61.901 52.425 1 .853.975.883c1.285 1.197 2.487 2.478 3.606 3.831 2.235 2.706 4.111 5.717 5.503 8.946s2.313 6.663 2.651 10.167.109 7.062-.681 10.49c-.098.429-.215.853-.321 1.28-.115.424-.247.843-.372 1.266l-.833 2.489-24.831 74.475-.715-.24 25-74.426.834-2.472.368-1.243.319-1.257c.785-3.37 1.023-6.865.692-10.311-.324-3.445-1.224-6.833-2.588-10.014s-3.207-6.159-5.409-8.837a39.97 39.97 0 0 0-3.555-3.795l-.962-.875c-.322-.291-.66-.565-.99-.848l-61.783-52.564-1-.846-.502-.422c-.166-.144-.326-.293-.488-.438-.325-.293-.655-.581-.964-.891-.314-.306-.638-.6-.938-.919-2.464-2.487-4.607-5.295-6.307-8.359s-2.957-6.371-3.677-9.798-.893-6.969-.483-10.446c.201-1.738.547-3.461 1.022-5.144l.381-1.255.421-1.242L250.346.248l.006.006z"/><path d="M250.352.254l-24.964 82.704-.38 1.249-.328 1.262c-.405 1.693-.677 3.415-.807 5.151a32.3 32.3 0 0 0 .905 10.351c.855 3.372 2.232 6.608 4.034 9.58s4.022 5.693 6.549 8.084c.633.594 1.279 1.178 1.947 1.734.326.287.673.551 1.013.825l1.02.819 63.196 50.898 1.025.823.999.857c1.315 1.162 2.561 2.404 3.721 3.723 2.321 2.634 4.296 5.58 5.805 8.758s2.547 6.58 3.023 10.067a32.58 32.58 0 0 1-.278 10.51 32.37 32.37 0 0 1-.596 2.572c-.105.429-.247.844-.371 1.265l-.382 1.255-22.636 75.199-.722-.219 22.807-75.154.382-1.249c.124-.415.266-.827.369-1.246.232-.834.429-1.675.593-2.526a32.05 32.05 0 0 0 .296-10.332c-.46-3.43-1.47-6.787-2.953-9.918s-3.422-6.044-5.707-8.652c-1.143-1.304-2.369-2.534-3.667-3.687l-.987-.849-1.015-.819-63.081-51.04-1.02-.823c-.34-.276-.687-.54-1.016-.83-.671-.563-1.318-1.151-1.956-1.752-2.538-2.411-4.766-5.155-6.575-8.153s-3.187-6.26-4.039-9.658a32.53 32.53 0 0 1-.889-10.424c.134-1.745.411-3.48.823-5.182l.334-1.27L250.358.258l-.006-.004z"/><path d="M250.352.254l-22.519 83.448-.613 2.538c-.342 1.708-.546 3.44-.608 5.18a32.48 32.48 0 0 0 1.304 10.313c.971 3.344 2.473 6.525 4.377 9.437s4.215 5.554 6.807 7.877l.987.854 1.013.825 2.077 1.589 64.452 49.362 1.045.797c.346.269.682.553 1.023.828a43.14 43.14 0 0 1 3.832 3.61c2.402 2.562 4.475 5.44 6.096 8.563 1.613 3.125 2.775 6.488 3.384 9.958s.655 7.035.125 10.518l-.1.653-.249 1.298-.302 1.287-.176.634-.345 1.267-20.41 75.873-.728-.196 20.582-75.834.345-1.259.173-.626.299-1.264.249-1.276.098-.642c.528-3.421.494-6.927-.098-10.339s-1.727-6.729-3.312-9.812c-1.59-3.082-3.629-5.927-5.997-8.463a42.3 42.3 0 0 0-3.779-3.578l-1.011-.821-1.036-.793-64.343-49.507-2.079-1.599-1.017-.832-.991-.862c-2.603-2.344-4.924-5.008-6.835-7.947s-3.415-6.144-4.385-9.512c-.977-3.364-1.424-6.886-1.288-10.388.066-1.751.277-3.495.624-5.212a32.81 32.81 0 0 1 .623-2.551L250.352.254z"/><path d="M250.352.254l-19.433 81.585-1.126 5.108a32.03 32.03 0 0 0-.409 5.203c.007 3.483.596 6.959 1.698 10.261s2.698 6.441 4.707 9.285c2.003 2.849 4.398 5.415 7.058 7.663l1.009.828 1.034.796 2.119 1.537 65.675 47.815 1.064.771c.356.255.698.535 1.047.799 1.381 1.085 2.698 2.253 3.937 3.498 2.477 2.491 4.653 5.297 6.371 8.369s3.006 6.388 3.746 9.833a32.54 32.54 0 0 1 .522 10.513c-.055.438-.098.876-.175 1.31s-.132.871-.229 1.302c-.158.868-.39 1.717-.588 2.568l-18.158 76.496-.733-.176 18.33-76.462c.2-.851.431-1.687.587-2.538.094-.422.155-.851.227-1.279s.12-.857.175-1.287a32.01 32.01 0 0 0-.491-10.335c-.718-3.391-1.979-6.663-3.667-9.694s-3.826-5.808-6.27-8.274c-1.222-1.235-2.522-2.389-3.886-3.467-.345-.264-.679-.54-1.034-.792l-1.057-.768-65.565-47.967-2.12-1.543-1.04-.804-1.015-.836c-2.673-2.266-5.077-4.857-7.088-7.729s-3.619-6.029-4.719-9.36-1.688-6.829-1.686-10.337a32.42 32.42 0 0 1 .424-5.235c.274-1.734.747-3.423 1.14-5.123L250.348.248l.004.006z"/><path d="M250.352.254l-17.003 82.197-.954 5.148a32.17 32.17 0 0 0-.212 5.22c.142 3.483.863 6.937 2.089 10.199a36.51 36.51 0 0 0 5.028 9.128c2.1 2.783 4.573 5.276 7.299 7.446.346.266.681.543 1.034.798l1.057.77 2.158 1.485 66.856 46.262c.719.5 1.451.985 2.153 1.517a44.11 44.11 0 0 1 4.041 3.386c1.277 1.209 2.481 2.496 3.594 3.86a38.76 38.76 0 0 1 3.041 4.312c1.825 3.01 3.23 6.282 4.098 9.701s1.187 6.977.919 10.496c-.128 1.759-.421 3.508-.811 5.218l-15.877 77.066-.739-.153 16.052-77.04c.392-1.698.679-3.406.809-5.136a32.04 32.04 0 0 0-.879-10.318c-.845-3.365-2.225-6.592-4.017-9.566-.896-1.487-1.9-2.909-2.992-4.261s-2.281-2.623-3.541-3.821-2.595-2.317-3.989-3.357c-.692-.526-1.417-1.009-2.132-1.509l-66.754-46.414-2.158-1.494c-.359-.253-.708-.517-1.062-.776s-.693-.537-1.04-.805c-2.739-2.189-5.224-4.705-7.331-7.513s-3.815-5.912-5.042-9.199-1.945-6.767-2.079-10.273c-.068-1.753.008-3.512.225-5.252.056-.434.107-.87.189-1.302.073-.432.143-.866.241-1.293L250.348.258l.004-.004z"/><path d="M250.352.254l-15.001 85.331-.189 1.294-.135 1.302a32.03 32.03 0 0 0-.014 5.229c.274 3.48 1.127 6.907 2.47 10.126s3.158 6.239 5.341 8.96 4.74 5.136 7.53 7.231c.694.528 1.411 1.024 2.137 1.509l2.195 1.436 68.004 44.7c.729.487 1.478.947 2.191 1.462 1.441 1.01 2.824 2.101 4.139 3.273a39.94 39.94 0 0 1 6.89 7.972c1.925 2.952 3.447 6.173 4.442 9.56a32.75 32.75 0 0 1 1.307 10.463 32.89 32.89 0 0 1-.626 5.25l-13.573 77.583-.743-.13 13.75-77.559c.349-1.707.558-3.43.628-5.164.141-3.469-.291-6.958-1.262-10.29s-2.462-6.514-4.355-9.43a39.5 39.5 0 0 0-6.784-7.886c-1.296-1.16-2.662-2.243-4.087-3.245-.703-.512-1.447-.97-2.171-1.457l-67.903-44.854-2.196-1.444c-.727-.491-1.449-.993-2.147-1.525-2.802-2.113-5.368-4.551-7.562-7.295s-4.013-5.787-5.356-9.031-2.196-6.697-2.464-10.2a32.2 32.2 0 0 1 .026-5.261c.047-.436.078-.876.14-1.31s.111-.872.192-1.302l.464-2.587L250.36.252l-.008.002z"/><path d="M250.352.254l-12.063 83.242-.38 2.598-.141 1.302-.087 1.308a32.07 32.07 0 0 0 .185 5.231c.404 3.47 1.381 6.869 2.841 10.041a37.86 37.86 0 0 0 5.647 8.786c2.266 2.659 4.896 4.998 7.747 7.018l.534.379c.179.124.364.241.545.362.364.24.724.487 1.1.712l2.23 1.386 70.235 43.827.56.347.551.364a46.04 46.04 0 0 1 4.234 3.159c2.694 2.272 5.109 4.88 7.135 7.769 2.021 2.889 3.662 6.057 4.768 9.414 1.113 3.353 1.696 6.884 1.69 10.42a32.68 32.68 0 0 1-.434 5.276l-11.248 78.044-.747-.11 11.423-78.024c.287-1.719.434-3.452.44-5.19.013-3.474-.553-6.948-1.639-10.248-1.081-3.306-2.693-6.433-4.679-9.288s-4.372-5.436-7.03-7.688c-1.33-1.124-2.728-2.17-4.181-3.134l-.543-.362-1.666-1.042-69.02-43.286-2.23-1.393c-.375-.226-.738-.475-1.106-.717l-.547-.366-.537-.381c-2.863-2.038-5.504-4.399-7.779-7.08s-4.204-5.658-5.664-8.856-2.439-6.62-2.837-10.114c-.2-1.747-.259-3.51-.174-5.265l.091-1.315.145-1.31.387-2.602L250.358.256l-.006-.002z"/><path d="M250.352.254l-9.56 83.672-.294 2.612-.093 1.308-.039 1.311a32.09 32.09 0 0 0 .379 5.227c.534 3.457 1.636 6.82 3.2 9.948 1.57 3.127 3.588 6.022 5.943 8.607 1.177 1.293 2.437 2.512 3.766 3.648s2.733 2.185 4.188 3.155c1.449.979 2.981 1.828 4.487 2.732l70.195 41.554 1.135.67c.38.223.761.444 1.131.683 1.496.934 2.943 1.948 4.322 3.048 2.756 2.202 5.254 4.736 7.371 7.563a38.13 38.13 0 0 1 2.877 4.446c.849 1.549 1.591 3.159 2.206 4.817a33.16 33.16 0 0 1 2.069 10.366 32.29 32.29 0 0 1-.243 5.295l-8.903 78.449-.749-.087 9.079-78.432c.224-1.731.309-3.468.251-5.208-.114-3.476-.808-6.931-2.014-10.196-.601-1.634-1.328-3.221-2.162-4.749a37.95 37.95 0 0 0-2.828-4.392c-2.083-2.794-4.545-5.302-7.265-7.487-1.363-1.091-2.791-2.097-4.27-3.025-.366-.238-.743-.459-1.119-.681l-1.13-.67-70.103-41.711c-1.501-.904-3.039-1.762-4.495-2.751a45.31 45.31 0 0 1-4.206-3.186c-1.336-1.145-2.6-2.373-3.783-3.677-2.364-2.608-4.388-5.525-5.961-8.677-1.566-3.151-2.668-6.54-3.198-10.022a32.29 32.29 0 0 1-.37-5.261c0-.44.028-.879.041-1.319s.065-.877.097-1.317l.301-2.617L250.354.25l-.002.004z"/><path d="M250.352.254l-7.037 84.042-.112 1.311-.098 1.311-.043 1.313.009 1.313a32.16 32.16 0 0 0 .572 5.216c.66 3.44 1.885 6.765 3.554 9.843s3.789 5.91 6.221 8.428a43.34 43.34 0 0 0 8.154 6.587c1.477.94 3.032 1.755 4.56 2.625l71.24 39.969 2.3 1.3a45.28 45.28 0 0 1 4.406 2.938c2.818 2.129 5.392 4.591 7.601 7.354a37.22 37.22 0 0 1 5.388 9.105c1.347 3.274 2.191 6.761 2.444 10.297a32.66 32.66 0 0 1-.051 5.308l-6.54 78.793-.752-.064 6.714-78.78a32.14 32.14 0 0 0 .063-5.219c-.24-3.476-1.061-6.907-2.38-10.131s-3.116-6.26-5.293-8.988-4.711-5.171-7.494-7.282c-1.391-1.059-2.849-2.027-4.353-2.916-.751-.449-1.522-.86-2.285-1.298l-71.153-40.129c-1.523-.872-3.083-1.693-4.57-2.644-2.981-1.88-5.745-4.106-8.19-6.646s-4.571-5.39-6.241-8.496-2.898-6.451-3.556-9.916c-.33-1.732-.519-3.489-.562-5.252-.021-.44-.01-.881-.006-1.321-.004-.442.028-.881.047-1.321.013-.442.066-.877.102-1.317L250.35.252l.002.002z"/><path d="M250.352.254l-4.498 84.348-.107 1.974-.014.659-.011.659.013.659.015.659.042.657a32.47 32.47 0 0 0 .76 5.201c.785 3.419 2.128 6.705 3.902 9.73 1.768 3.032 3.977 5.797 6.49 8.244a44.3 44.3 0 0 0 8.345 6.372c1.505.901 3.081 1.68 4.63 2.518l69.923 37.14 4.666 2.483c1.547.855 3.047 1.799 4.486 2.829 2.879 2.055 5.526 4.446 7.821 7.144s4.222 5.712 5.684 8.943 2.428 6.691 2.807 10.222c.191 1.764.238 3.547.138 5.316l-4.158 79.079-.753-.04 4.334-79.068c.102-1.743.06-3.491-.125-5.225-.366-3.47-1.309-6.874-2.739-10.06s-3.328-6.161-5.587-8.829-4.869-5.036-7.712-7.076a45.13 45.13 0 0 0-4.434-2.808l-4.649-2.487-69.842-37.297c-1.545-.84-3.124-1.625-4.639-2.534-3.034-1.803-5.858-3.963-8.383-6.43s-4.739-5.257-6.511-8.31c-1.779-3.047-3.122-6.357-3.905-9.801-.392-1.721-.645-3.474-.755-5.235l-.039-.66-.015-.662-.014-.662.012-.662.015-.662.113-1.98L250.344.263l.008-.009z"/><path d="M250.352.254l-1.945 84.589-.032 1.321-.013.659.009.659.051 1.317.104 1.313a32.53 32.53 0 0 0 .947 5.18c.907 3.397 2.364 6.636 4.239 9.607.938 1.486 1.975 2.907 3.104 4.257a41.29 41.29 0 0 0 3.645 3.802c2.588 2.376 5.46 4.442 8.529 6.157.77.425 1.544.842 2.334 1.225l2.362 1.183 75.603 37.973a46.8 46.8 0 0 1 4.564 2.719c2.937 1.981 5.652 4.3 8.031 6.933 2.37 2.64 4.402 5.589 5.971 8.776s2.661 6.614 3.164 10.135a32.63 32.63 0 0 1 .327 5.318l-.123 5.291-1.641 74.011-.755-.017 1.807-74.016.134-5.282a32.05 32.05 0 0 0-.309-5.227c-.489-3.461-1.553-6.837-3.092-9.977s-3.538-6.057-5.87-8.669c-2.343-2.604-5.022-4.902-7.924-6.87-1.451-.984-2.956-1.889-4.511-2.703l-77.87-39.325a50.79 50.79 0 0 1-2.343-1.236 45.5 45.5 0 0 1-8.566-6.212 41.8 41.8 0 0 1-3.658-3.835 39.54 39.54 0 0 1-3.113-4.289c-1.879-2.993-3.339-6.259-4.245-9.678a32.74 32.74 0 0 1-.941-5.214c-.042-.44-.087-.879-.102-1.323-.025-.441-.049-.883-.047-1.325l-.008-.662c0-.221.01-.442.015-.662l.036-1.323L250.352.252v.002z"/><path d="M250.352.254l.621 84.763.051 2.642.247 2.629c.236 1.744.617 3.468 1.13 5.152 1.026 3.368 2.594 6.565 4.566 9.478s4.335 5.567 6.995 7.873 5.592 4.297 8.705 5.942c.782.406 1.566.802 2.37 1.168l78.978 37.446c1.592.782 3.139 1.657 4.637 2.61 2.991 1.91 5.777 4.153 8.232 6.725 2.449 2.574 4.575 5.463 6.25 8.603s2.885 6.533 3.513 10.041c.315 1.753.487 3.533.513 5.314l.036 5.304.604 74.164-.755.006-.437-74.171-.025-5.292a32.22 32.22 0 0 0-.492-5.223c-.61-3.449-1.793-6.791-3.436-9.886s-3.736-5.952-6.149-8.499-5.167-4.771-8.122-6.667c-1.479-.947-3.009-1.817-4.584-2.595l-78.886-37.616c-.803-.369-1.592-.769-2.377-1.179-3.128-1.66-6.073-3.668-8.743-5.997a40.5 40.5 0 0 1-7.022-7.935c-1.977-2.938-3.549-6.157-4.573-9.55-.513-1.695-.892-3.432-1.126-5.187-.117-.877-.2-1.761-.244-2.646-.053-.885-.037-1.77-.045-2.653L250.352.254z"/><path d="M250.352.254l-90.905 40.822c-3.368 1.493-6.579 3.342-9.511 5.571-2.934 2.223-5.592 4.812-7.845 7.722s-4.105 6.131-5.388 9.577-2.002 7.097-2.077 10.775l-2.585 71.932c-.079 1.838-.075 3.702-.317 5.548-.447 3.692-1.536 7.3-3.162 10.642s-3.764 6.429-6.273 9.167-5.383 5.137-8.494 7.162c-1.556 1.011-3.171 1.932-4.832 2.76l-1.254.602-1.268.566-83.306 37.469-.309-.689 83.389-37.293 1.26-.558 1.241-.593a48.26 48.26 0 0 0 4.783-2.719c3.079-1.995 5.924-4.355 8.407-7.056s4.603-5.736 6.209-9.033c1.611-3.291 2.692-6.846 3.139-10.484.242-1.817.242-3.655.325-5.503l2.737-71.931c.085-3.706.814-7.395 2.119-10.864s3.174-6.718 5.449-9.637 4.954-5.521 7.909-7.75 6.184-4.085 9.567-5.574L250.352.254z"/><path d="M250.352.254l-89.705 42.735c-3.321 1.568-6.477 3.493-9.343 5.788s-5.443 4.948-7.603 7.914-3.904 6.237-5.072 9.712-1.76 7.139-1.715 10.805l-.401 71.771c-.025 1.836.035 3.691-.14 5.539-.325 3.694-1.289 7.327-2.802 10.71s-3.558 6.522-5.979 9.324-5.224 5.271-8.273 7.367c-1.524 1.049-3.113 2.006-4.748 2.872l-1.238.63-1.251.595-82.204 39.221-.325-.681 82.29-39.046 1.244-.587 1.224-.619a47.39 47.39 0 0 0 4.7-2.828c3.019-2.065 5.792-4.495 8.188-7.258s4.422-5.852 5.918-9.186 2.457-6.91 2.783-10.55c.178-1.819.121-3.652.151-5.495l.557-71.773c-.038-3.695.564-7.397 1.752-10.896s2.949-6.797 5.13-9.775 4.781-5.646 7.666-7.946 6.062-4.229 9.397-5.795L250.35.26l.002-.006z"/><path d="M250.352.254l-88.456 44.628c-3.274 1.642-6.366 3.646-9.166 6.005-2.794 2.362-5.288 5.084-7.35 8.105s-3.696 6.337-4.745 9.839-1.515 7.173-1.345 10.826l1.837 74.299.019.691-.005.693-.01.692-.036.693c-.198 3.692-1.037 7.344-2.437 10.765s-3.342 6.612-5.672 9.477-5.058 5.4-8.044 7.57c-1.495 1.084-3.051 2.084-4.662 2.982l-1.217.658c-.408.217-.823.416-1.234.623l-81.061 40.956-.34-.674 81.149-40.784 1.224-.615 1.206-.647c1.596-.885 3.136-1.868 4.615-2.936 2.954-2.137 5.652-4.635 7.96-7.46s4.231-5.963 5.614-9.337a32.75 32.75 0 0 0 2.425-10.605l.037-.681.012-.683.007-.683-.017-.685-1.679-74.302a32.8 32.8 0 0 1 1.381-10.918c1.064-3.531 2.717-6.871 4.802-9.905s4.599-5.769 7.412-8.139c2.819-2.366 5.934-4.372 9.223-6.014L250.352.25v.004z"/><path d="M250.352.254l-87.164 46.502c-3.22 1.719-6.252 3.797-8.977 6.225s-5.128 5.216-7.092 8.29-3.481 6.433-4.407 9.96a32.35 32.35 0 0 0-.971 10.835l4.077 73.993c.026.459.058.917.058 1.38l.013.69c0 .231-.007.461-.011.691-.074 3.685-.785 7.356-2.068 10.811s-3.117 6.699-5.354 9.624-4.887 5.53-7.805 7.772c-1.459 1.123-2.989 2.153-4.572 3.089a51.17 51.17 0 0 1-2.411 1.338l-79.874 42.675-.355-.666 79.968-42.503c.811-.417 1.605-.861 2.39-1.319 1.568-.923 3.081-1.938 4.524-3.044 2.889-2.208 5.508-4.774 7.724-7.658s4.034-6.074 5.302-9.48 1.979-7.016 2.06-10.648l.013-.682-.011-.681c0-.455-.03-.907-.055-1.362l-3.914-74.001c-.287-3.663.058-7.378 1.005-10.928s2.479-6.939 4.464-10.026 4.407-5.891 7.152-8.327 5.796-4.518 9.034-6.237L250.361.25l-.009.004z"/><path d="M250.352.254l-85.826 48.359c-3.168 1.795-6.134 3.948-8.781 6.446s-4.966 5.344-6.822 8.473c-1.858 3.123-3.26 6.525-4.062 10.071a32.33 32.33 0 0 0-.596 10.832l6.292 73.627a31.13 31.13 0 0 1 .153 2.75 32.87 32.87 0 0 1-1.693 10.845c-1.158 3.489-2.886 6.78-5.026 9.763s-4.707 5.659-7.556 7.973a45.44 45.44 0 0 1-4.477 3.198c-.777.485-1.566.957-2.369 1.397l-2.387 1.343-76.263 43.034-.37-.659 78.744-44.207c.798-.434 1.577-.898 2.349-1.376 1.538-.962 3.022-2.009 4.432-3.149 2.818-2.28 5.356-4.914 7.477-7.854s3.829-6.18 4.978-9.616 1.734-7.06 1.691-10.683c-.006-.905-.06-1.809-.145-2.713l-6.14-73.643c-.407-3.64-.196-7.354.627-10.924.817-3.574 2.236-6.999 4.115-10.141s4.214-6.008 6.882-8.51 5.655-4.663 8.837-6.459L250.35.256l.002-.002z"/><path d="M250.352.254l-84.445 50.197c-3.111 1.872-6.009 4.099-8.575 6.665s-4.794 5.471-6.543 8.65c-1.751 3.174-3.032 6.612-3.707 10.173-.34 1.779-.529 3.587-.564 5.399l.003 1.359.063 1.357.118 1.353.165 1.351 8.493 73.197c.117.906.204 1.819.247 2.734.18 3.661-.271 7.352-1.311 10.866s-2.649 6.855-4.69 9.895-4.519 5.786-7.298 8.169a45.55 45.55 0 0 1-4.379 3.308c-1.522 1.021-3.12 1.906-4.675 2.848L58.222 242.44l-.385-.65 75.132-44.507c1.561-.94 3.149-1.815 4.653-2.819 1.507-.998 2.956-2.085 4.334-3.257 2.748-2.347 5.199-5.05 7.22-8.046s3.617-6.282 4.645-9.747 1.485-7.095 1.315-10.703c-.04-.902-.125-1.802-.238-2.7l-8.333-73.215-.161-1.359c-.051-.453-.077-.912-.117-1.366-.028-.457-.039-.913-.058-1.37v-1.37c.039-1.827.236-3.651.581-5.446.689-3.591 1.987-7.054 3.758-10.246 1.766-3.197 4.019-6.116 6.604-8.692s5.505-4.808 8.631-6.68L250.358.252l-.006.002z"/><path d="M250.352.254l-83.017 52.014c-3.051 1.947-5.879 4.25-8.36 6.884s-4.607 5.603-6.25 8.824-2.798 6.693-3.345 10.265a31.8 31.8 0 0 0-.366 5.401c.018.451.018.904.051 1.353s.052.902.109 1.349l.113 1.01.051.336.202 1.343 10.667 72.705.198 1.353.142 1.363a32.66 32.66 0 0 1-.928 10.875c-.91 3.542-2.406 6.923-4.344 10.018s-4.326 5.91-7.031 8.359c-1.353 1.227-2.783 2.367-4.273 3.418-1.489 1.06-3.064 1.983-4.591 2.955l-73.761 46.281-.4-.64 73.867-46.124c1.534-.972 3.096-1.883 4.568-2.925 1.475-1.036 2.89-2.159 4.228-3.367 2.677-2.413 5.039-5.181 6.958-8.233s3.399-6.38 4.303-9.867a32.22 32.22 0 0 0 .938-10.712c-.034-.45-.093-.897-.138-1.344-.058-.447-.13-.893-.194-1.34l-10.507-72.729-.2-1.349-.051-.338-.113-1.019c-.055-.453-.07-.91-.108-1.362-.032-.455-.032-.911-.049-1.366-.026-1.823.098-3.648.381-5.448.561-3.602 1.732-7.103 3.394-10.341s3.81-6.225 6.311-8.869 5.349-4.951 8.417-6.901L250.354.248l-.002.006z"/><path d="M250.352.254l-81.544 53.812c-2.988 2.025-5.743 4.401-8.135 7.103s-4.416 5.729-5.945 8.995-2.56 6.767-2.975 10.347a32.2 32.2 0 0 0-.17 5.395c.032.449.046.9.1 1.347.047.447.085.896.157 1.342.109.894.302 1.776.453 2.668l12.812 72.156.241 1.341.191 1.353a32.65 32.65 0 0 1-.54 10.873c-.783 3.563-2.158 6.986-3.988 10.136s-4.132 6.023-6.756 8.546c-1.313 1.262-2.706 2.44-4.164 3.529-1.453 1.1-3.002 2.058-4.503 3.062l-72.45 47.88-.415-.631 72.559-47.724c1.509-1.004 3.041-1.95 4.479-3.031a43.64 43.64 0 0 0 4.12-3.476c2.596-2.485 4.874-5.31 6.685-8.416s3.173-6.472 3.952-9.98.974-7.143.555-10.711l-.185-1.334-.238-1.33-12.657-72.185c-.149-.893-.342-1.781-.449-2.685-.072-.449-.108-.902-.155-1.355-.055-.451-.066-.906-.098-1.361-.093-1.815-.03-3.638.183-5.442.424-3.612 1.47-7.141 3.02-10.424s3.591-6.333 6.004-9.043 5.186-5.093 8.192-7.122L250.35.254h.002z"/><path d="M250.352.254l-80.023 55.59c-2.926 2.098-5.601 4.55-7.901 7.316s-4.217 5.854-5.628 9.161-2.313 6.835-2.594 10.418c-.144 1.791-.134 3.593.024 5.382l.062.67c.023.223.057.445.085.668l.089.668.113.664.115.664.142.66.279 1.323 14.929 71.546.281 1.33c.093.444.159.895.238 1.342a32.38 32.38 0 0 1-.145 10.856c-.653 3.58-1.904 7.04-3.624 10.241-1.727 3.2-3.929 6.136-6.472 8.729a43.07 43.07 0 0 1-4.049 3.638c-.356.282-.711.565-1.079.829s-.726.545-1.103.796l-2.229 1.544-71.098 49.458-.43-.62 71.212-49.308 2.225-1.534c.375-.249.73-.523 1.092-.785s.715-.54 1.068-.817a42.68 42.68 0 0 0 4.006-3.584c2.514-2.555 4.692-5.444 6.401-8.595s2.943-6.56 3.594-10.084.715-7.154.166-10.696l-.232-1.325-.275-1.319-14.773-71.58-.277-1.327-.142-.664-.115-.67-.113-.67-.089-.674-.085-.674-.06-.677c-.157-1.806-.162-3.625-.013-5.431.292-3.614 1.207-7.171 2.637-10.497s3.366-6.433 5.685-9.211 5.016-5.236 7.96-7.339L250.352.25v.004z"/><path d="M250.352.254l-78.457 57.352c-2.86 2.17-5.456 4.693-7.662 7.526s-4.011 5.974-5.301 9.322-2.059 6.895-2.209 10.477a32.06 32.06 0 0 0 .22 5.365c.029.223.051.445.087.666l.109.662c.066.444.159.881.25 1.321.083.44.196.874.303 1.31l.317 1.311 17.014 70.882c.21.876.438 1.753.602 2.646.687 3.559.777 7.237.253 10.826s-1.645 7.087-3.258 10.333-3.713 6.248-6.168 8.911c-1.228 1.332-2.543 2.583-3.93 3.747-.692.583-1.407 1.142-2.132 1.683l-2.186 1.593-69.709 51.019-.445-.609 69.823-50.87 2.181-1.582a45.05 45.05 0 0 0 2.11-1.656c1.371-1.148 2.673-2.378 3.886-3.691 2.428-2.623 4.507-5.575 6.102-8.773s2.713-6.639 3.233-10.173c.525-3.534.444-7.156-.226-10.667-.16-.88-.385-1.744-.591-2.622l-16.861-70.921-.315-1.313c-.105-.44-.22-.876-.302-1.321-.09-.443-.183-.885-.249-1.332l-.107-.67c-.036-.223-.057-.449-.085-.672-.221-1.794-.293-3.608-.211-5.412.16-3.614.939-7.191 2.249-10.558 1.305-3.37 3.131-6.531 5.356-9.373s4.839-5.376 7.718-7.55L250.346.26l.006-.006z"/><path d="M250.352.254L182.04 52.772l-8.53 6.571c-2.787 2.249-5.307 4.836-7.411 7.733s-3.8 6.089-4.964 9.473-1.798 6.948-1.815 10.522a32.34 32.34 0 0 0 .417 5.338c.142.883.325 1.757.538 2.625.098.436.234.864.349 1.296l.355 1.298 19.065 70.165.356 1.302c.059.219.125.434.176.653l.154.66c.81 3.523 1.034 7.184.644 10.783-.385 3.598-1.383 7.123-2.878 10.416s-3.488 6.355-5.854 9.086c-1.183 1.366-2.456 2.653-3.805 3.855l-1.025.885-1.052.853-2.144 1.64-68.276 52.559-.46-.598 68.396-52.414 2.137-1.628 1.042-.842c.343-.285.675-.581 1.015-.872 1.334-1.183 2.594-2.451 3.764-3.796 2.339-2.69 4.313-5.701 5.792-8.945s2.469-6.712 2.858-10.254a32.08 32.08 0 0 0-.611-10.624l-.151-.651c-.051-.217-.115-.432-.172-.647l-.351-1.297-19.263-71.508c-.115-.436-.249-.864-.349-1.306a33.17 33.17 0 0 1-.537-2.651 32.63 32.63 0 0 1-.41-5.387c.025-3.608.67-7.203 1.855-10.605s2.892-6.621 5.018-9.527 4.664-5.506 7.468-7.759l8.55-6.556L250.358.25l-.006.004z"/><path d="M250.352.254l-73.108 59.105-1.568 1.262-.509.436c-2.713 2.323-5.14 4.986-7.147 7.941s-3.583 6.201-4.621 9.614-1.533 6.993-1.418 10.558c.056 1.781.262 3.559.613 5.306.087.438.192.87.288 1.306.106.432.229.862.342 1.293l.785 2.564 21.474 70.684.198.646c.064.215.117.436.175.653a32.67 32.67 0 0 1 1.034 10.725c-.251 3.603-1.115 7.154-2.488 10.488s-3.26 6.458-5.532 9.256c-1.136 1.4-2.368 2.723-3.677 3.961l-.998.913-1.026.88-2.097 1.691-66.804 54.08-.474-.587 66.928-53.937 2.088-1.677 1.015-.867.987-.898c1.294-1.219 2.513-2.521 3.635-3.9 2.247-2.755 4.113-5.825 5.474-9.111s2.22-6.778 2.475-10.324a32.22 32.22 0 0 0-.994-10.569l-.172-.643-.583-1.923-20.933-69.444-.781-2.574-.341-1.306-.289-1.317c-.349-1.764-.553-3.559-.605-5.355-.11-3.597.396-7.207 1.452-10.643 1.051-3.438 2.645-6.706 4.674-9.671s4.473-5.64 7.203-7.969l.511-.438 1.574-1.262L250.348.258l.004-.004z"/><path d="M250.352.254l-71.456 60.747-2.022 1.749c-2.634 2.398-4.97 5.131-6.869 8.144s-3.359 6.305-4.27 9.746a32.53 32.53 0 0 0-1.017 10.579c.123 1.774.396 3.538.81 5.269l.335 1.291.389 1.276.86 2.535 23.908 71.135c1.051 3.44 1.543 7.055 1.421 10.654s-.845 7.172-2.094 10.546-3.023 6.554-5.198 9.418c-1.087 1.435-2.275 2.789-3.545 4.063-.315.321-.645.627-.968.94s-.664.606-.996.908c-.672.596-1.372 1.16-2.045 1.743l-65.292 55.58-.489-.575 65.418-55.441 2.038-1.728c.328-.298.666-.587.985-.895l.956-.924a39.2 39.2 0 0 0 3.508-3.999c2.151-2.821 3.907-5.946 5.143-9.271s1.964-6.838 2.086-10.382-.349-7.105-1.377-10.502l-23.745-71.168-.857-2.544c-.138-.427-.258-.859-.389-1.289l-.335-1.304a32.58 32.58 0 0 1-.806-5.318c-.243-3.582.123-7.199 1.047-10.665s2.402-6.78 4.321-9.805 4.273-5.772 6.925-8.176c.657-.609 1.355-1.172 2.034-1.751L250.354.25l-.002.004z"/><path d="M250.352.254l-69.758 62.364-.996.887-.971.913c-2.553 2.474-4.792 5.276-6.581 8.346s-3.121 6.406-3.902 9.871-.998 7.056-.613 10.584c.191 1.764.528 3.512 1.004 5.221.238.855.509 1.7.813 2.534l.93 2.504 25.925 70.237a32.98 32.98 0 0 1 1.807 10.571c.019 3.593-.571 7.184-1.696 10.594s-2.777 6.646-4.858 9.571a39.99 39.99 0 0 1-3.407 4.163c-.298.334-.623.645-.936.966s-.642.626-.966.936-.659.607-.994.904l-1 .89-63.737 57.058-.502-.562 63.867-56.92.998-.885c.334-.293.668-.585.985-.893s.649-.602.955-.921.63-.622.926-.951c1.213-1.288 2.341-2.657 3.37-4.098 2.058-2.88 3.695-6.059 4.809-9.42s1.703-6.892 1.692-10.43a32.46 32.46 0 0 0-1.758-10.42l-25.765-70.28-.926-2.512c-.306-.839-.577-1.694-.815-2.557a32.93 32.93 0 0 1-1.002-5.27c-.381-3.561-.157-7.182.642-10.671.792-3.491 2.141-6.848 3.95-9.933s4.066-5.901 6.637-8.38c.327-.304.644-.621.98-.915l1.001-.889L250.354.252l-.002.002z"/><path d="M250.352.254l-68.014 63.955-.972.91-.941.94c-2.468 2.547-4.609 5.418-6.283 8.542s-2.879 6.501-3.522 9.986a32.25 32.25 0 0 0-.206 10.575 32.82 32.82 0 0 0 1.194 5.168c.523 1.693 1.251 3.312 1.902 4.969l27.9 69.293c1.285 3.344 2.039 6.893 2.189 10.477s-.299 7.185-1.291 10.627-2.539 6.724-4.513 9.713c-.987 1.494-2.079 2.919-3.262 4.262l-.443.504-.917.982-.476.473c-.622.644-1.298 1.231-1.941 1.846l-62.143 58.512-.517-.551 62.277-58.378c.643-.614 1.311-1.193 1.928-1.827l.47-.466.909-.966c.149-.163.293-.33.438-.496 1.168-1.323 2.249-2.725 3.224-4.197 1.953-2.94 3.479-6.167 4.468-9.558s1.44-6.935 1.294-10.463a32.63 32.63 0 0 0-2.135-10.328l-27.744-69.344c-.645-1.653-1.375-3.288-1.9-4.997-.536-1.704-.937-3.45-1.192-5.218a32.54 32.54 0 0 1 .23-10.663c.657-3.51 1.877-6.91 3.572-10.05s3.852-6.025 6.339-8.578l.947-.944.977-.911L250.352.248v.006z"/><path d="M250.352.254l-66.228 65.521-.941.938-.909.966c-2.385 2.614-4.421 5.552-5.979 8.729a34.03 34.03 0 0 0-3.138 10.088 32.22 32.22 0 0 0 .204 10.552 33.06 33.06 0 0 0 1.383 5.111l.224.622.246.615.249.614.27.605 1.067 2.437 29.827 68.31c1.398 3.287 2.284 6.799 2.571 10.365.293 3.567-.022 7.176-.89 10.647s-2.283 6.799-4.149 9.848c-.932 1.525-1.975 2.982-3.111 4.361s-2.374 2.678-3.657 3.908l-60.507 59.943-.53-.538 60.645-59.815c1.281-1.222 2.502-2.49 3.622-3.853a37.86 37.86 0 0 0 3.076-4.293c1.845-3 3.248-6.274 4.107-9.69s1.179-6.968.9-10.48a32.97 32.97 0 0 0-2.513-10.22l-29.672-68.369-1.064-2.442-.27-.611c-.09-.204-.166-.413-.251-.619l-.245-.621c-.081-.207-.151-.419-.226-.628a33.48 33.48 0 0 1-1.383-5.159c-.645-3.506-.706-7.118-.181-10.641a34.23 34.23 0 0 1 3.183-10.156c1.575-3.195 3.63-6.146 6.033-8.769.298-.328.611-.645.917-.97s.632-.625.947-.94L250.352.246v.008z"/><path d="M250.352.254l-64.394 67.061-.907.964-.876.995c-2.292 2.687-4.224 5.686-5.663 8.909s-2.378 6.671-2.747 10.18-.166 7.076.611 10.516a33.45 33.45 0 0 0 1.568 5.046c.326.819.685 1.625 1.073 2.417l32.843 69.691c1.508 3.229 2.521 6.697 2.942 10.243.426 3.544.254 7.158-.48 10.651-.728 3.494-2.02 6.866-3.775 9.972s-3.966 5.954-6.482 8.467l-58.83 61.351-.544-.522 58.972-61.225c2.498-2.485 4.681-5.278 6.414-8.337s3.015-6.374 3.74-9.812.907-6.993.496-10.484-1.398-6.911-2.879-10.104l-32.685-69.757c-.388-.798-.749-1.611-1.075-2.438a33.8 33.8 0 0 1-1.57-5.093 32.59 32.59 0 0 1-.594-10.605c.381-3.536 1.328-7.008 2.788-10.248s3.408-6.255 5.717-8.95c.281-.344.587-.666.883-.996s.606-.647.915-.966L250.356.263l-.004-.009z"/><path d="M250.352.254L189.62 66.869l-3.501 3.97c-2.196 2.757-4.017 5.816-5.332 9.086s-2.121 6.74-2.357 10.256a32.39 32.39 0 0 0 1.019 10.465c.451 1.702 1.04 3.367 1.751 4.976l.557 1.198.601 1.178 34.747 68.593c1.613 3.168 2.751 6.589 3.306 10.109s.528 7.127-.068 10.639-1.753 6.927-3.394 10.088-3.749 6.08-6.191 8.659l-57.115 62.732-.556-.509 57.256-62.608c2.423-2.547 4.502-5.412 6.124-8.525s2.772-6.467 3.364-9.926a32.3 32.3 0 0 0 .091-10.475c-.54-3.468-1.651-6.84-3.238-9.975l-34.593-68.666-.602-1.185-.559-1.21a34.15 34.15 0 0 1-1.754-5.023c-.906-3.433-1.249-7.014-1.004-10.556s1.064-7.039 2.396-10.326 3.17-6.363 5.385-9.129c1.1-1.393 2.335-2.664 3.52-3.974L250.35.254h.002z"/><path d="M250.352.254l-60.594 70.052-1.643 2.064c-2.098 2.825-3.804 5.944-4.991 9.254s-1.852 6.807-1.948 10.32a32.43 32.43 0 0 0 1.418 10.399c.515 1.68 1.163 3.32 1.928 4.901l.597 1.176.635 1.156 36.606 67.461c1.716 3.104 2.977 6.475 3.663 9.964a32.86 32.86 0 0 1 .344 10.614c-.455 3.527-1.481 6.98-3.006 10.192s-3.533 6.191-5.884 8.848l-55.357 64.087-.57-.494 55.5-63.964c2.33-2.622 4.315-5.546 5.823-8.709s2.526-6.554 2.981-10.026.358-7.016-.315-10.452-1.902-6.761-3.593-9.833l-36.452-67.538-.636-1.165c-.207-.39-.398-.79-.598-1.187a34.32 34.32 0 0 1-1.932-4.946c-1.032-3.389-1.515-6.948-1.407-10.489a33.51 33.51 0 0 1 1.987-10.392c1.201-3.331 2.926-6.467 5.041-9.301a38.93 38.93 0 0 1 1.656-2.072L250.358.254h-.006z"/><path d="M250.352.254l-58.628 71.505-.802 1.045-.766 1.072c-1.994 2.891-3.583 6.067-4.637 9.414a33.1 33.1 0 0 0-1.538 10.369c.042 3.508.666 7.007 1.821 10.319.575 1.656 1.281 3.268 2.1 4.819.401.779.86 1.529 1.301 2.291l38.415 66.293c1.817 3.038 3.196 6.355 4.013 9.809s1.075 7.04.754 10.576a33.77 33.77 0 0 1-2.62 10.279c-1.4 3.263-3.302 6.304-5.562 9.033l-53.559 65.414-.583-.48 53.704-65.293c2.24-2.689 4.115-5.678 5.502-8.887s2.279-6.631 2.601-10.113.081-7.012-.72-10.416-2.149-6.675-3.94-9.684l-38.267-66.378c-.44-.764-.9-1.519-1.304-2.306a35.07 35.07 0 0 1-2.107-4.863 32.91 32.91 0 0 1-1.813-10.409c-.036-3.536.498-7.076 1.571-10.445s2.676-6.561 4.689-9.463l.773-1.076.81-1.049L250.346.256l.006-.002z"/><path d="M250.352.254l-54.996 70.844-1.611 2.083-.766 1.07-.729 1.094c-1.89 2.951-3.36 6.18-4.282 9.563s-1.306 6.908-1.123 10.407a32.85 32.85 0 0 0 2.217 10.226c.636 1.632 1.398 3.214 2.269 4.733l.329.569 1.041 1.678 40.18 65.095c1.915 2.97 3.41 6.229 4.355 9.644a32.93 32.93 0 0 1 1.155 10.524c-.183 3.54-.94 7.05-2.219 10.356s-3.066 6.412-5.232 9.211l-51.717 66.71-.596-.463 51.864-66.593c2.143-2.757 3.911-5.806 5.173-9.061s2.019-6.701 2.206-10.186-.187-6.999-1.113-10.366-2.387-6.58-4.277-9.525l-40.037-65.184-1.042-1.685-.328-.575c-.875-1.533-1.64-3.131-2.277-4.776-1.277-3.291-2.036-6.788-2.211-10.315s.213-7.08 1.152-10.482 2.423-6.65 4.332-9.614c.238-.372.491-.732.736-1.1s.515-.715.773-1.074c.531-.704 1.083-1.391 1.621-2.085L250.352.256V.254z"/><path d="M250.352.254l-53.774 73.252-.764 1.068-.726 1.094-.689 1.119c-1.781 3.014-3.122 6.291-3.913 9.701s-1.039 6.944-.713 10.428 1.217 6.911 2.607 10.119c.695 1.604 1.512 3.157 2.436 4.642.223.375.472.737.713 1.102l.725 1.098 41.899 63.868c1.996 2.906 3.609 6.101 4.679 9.475a33.04 33.04 0 0 1 1.558 10.456c-.041 3.54-.658 7.07-1.809 10.418s-2.823 6.512-4.89 9.38l-49.837 67.978-.607-.447 49.985-67.863c2.045-2.823 3.7-5.931 4.836-9.225s1.754-6.765 1.803-10.249a32.54 32.54 0 0 0-1.513-10.299c-1.047-3.329-2.626-6.475-4.598-9.362l-41.757-63.962-.723-1.102c-.241-.368-.49-.73-.715-1.112-.926-1.5-1.747-3.064-2.443-4.685-1.396-3.238-2.29-6.695-2.607-10.207a32.93 32.93 0 0 1 .741-10.505c.804-3.433 2.162-6.729 3.96-9.756.217-.383.461-.751.694-1.123s.485-.736.734-1.098.508-.719.77-1.072L250.352.252v.002z"/><path d="M250.352.254L147.587-4.549c-6.831-.394-13.74.425-20.255 2.525a51.21 51.21 0 0 0-4.8 1.804c-.788.332-1.558.704-2.33 1.07l-1.141.583c-.381.192-.751.409-1.126.613-1.491.836-2.94 1.745-4.334 2.734s-2.724 2.064-3.992 3.21-2.464 2.366-3.581 3.659l-.821.983-.792 1.008-49.608 62.436c-1.092 1.336-2.272 2.602-3.522 3.791-2.504 2.376-5.285 4.457-8.262 6.197-5.949 3.502-12.611 5.735-19.433 6.714-3.413.496-6.871.659-10.316.526l-51.385-2.359.036-.755 51.378 2.476c3.407.138 6.828-.015 10.205-.498 6.749-.953 13.346-3.148 19.233-6.595 2.947-1.713 5.7-3.763 8.175-6.103 1.238-1.17 2.404-2.417 3.485-3.733l49.744-62.311.8-1.011c.268-.336.555-.659.83-.989 1.128-1.3 2.34-2.529 3.619-3.682s2.624-2.23 4.028-3.225a49.17 49.17 0 0 1 4.369-2.742c.38-.204.751-.421 1.134-.613l1.149-.585c.777-.368 1.553-.74 2.347-1.07 1.581-.674 3.189-1.291 4.83-1.802 6.552-2.098 13.497-2.904 20.353-2.491L250.356.254h-.004z"/><path d="M250.352.254L146.81-2.424c-6.888-.192-13.812.894-20.287 3.242-1.617.591-3.208 1.253-4.762 1.995a51.09 51.09 0 0 0-4.53 2.474c-1.468.898-2.883 1.881-4.234 2.946s-2.645 2.202-3.86 3.417-2.358 2.506-3.409 3.867l-3.104 4.14-43.576 57.958c-1.043 1.37-2.047 2.793-3.188 4.104-1.132 1.319-2.349 2.564-3.634 3.733-2.575 2.336-5.437 4.34-8.463 6.042-6.073 3.374-12.818 5.499-19.708 6.327-1.723.211-3.456.328-5.192.381-.868.03-1.736.023-2.604.017l-2.594-.072-51.768-1.31.021-.755 51.77 1.426 2.583.077 2.575-.011c1.715-.047 3.43-.16 5.136-.364 6.818-.804 13.493-2.893 19.506-6.212 2.994-1.676 5.828-3.65 8.375-5.95 1.272-1.151 2.475-2.378 3.596-3.676 1.128-1.293 2.122-2.693 3.173-4.067l43.708-57.858 3.119-4.14a40.62 40.62 0 0 1 3.445-3.891 43.41 43.41 0 0 1 3.898-3.434 44.2 44.2 0 0 1 4.269-2.957c1.478-.904 3.002-1.729 4.562-2.478 1.564-.743 3.166-1.404 4.793-1.995 6.514-2.346 13.476-3.419 20.389-3.212L250.348.256l.004-.002z"/><path d="M250.352.254L145.991-.271c-6.939.068-13.882 1.379-20.302 4.021l-1.198.506-1.185.536c-.781.379-1.562.753-2.324 1.17-1.531.817-3.019 1.712-4.453 2.685-2.858 1.961-5.503 4.238-7.816 6.82-1.157 1.291-2.23 2.651-3.202 4.089L60.174 83.375c-1.994 2.876-4.385 5.48-7.05 7.746s-5.59 4.231-8.696 5.842c-6.198 3.257-13.056 5.195-20.018 5.849-1.741.159-3.49.242-5.239.246l-5.222-.031-52.178-.247.004-.755 57.396.41a57.84 57.84 0 0 0 5.183-.232c6.886-.632 13.677-2.534 19.812-5.742 3.073-1.585 5.966-3.523 8.605-5.754s5-4.795 6.979-7.633l45.48-63.713c.981-1.442 2.069-2.817 3.237-4.114 2.338-2.597 5.008-4.884 7.89-6.852a49.29 49.29 0 0 1 4.487-2.693c.768-.415 1.554-.793 2.339-1.17l1.193-.536c.398-.179.803-.336 1.205-.506C132.043.85 139.022-.452 145.989-.503l104.361.76.002-.004z"/><path d="M250.352.254L147.88 1.875l-2.623.058c-6.986.281-13.921 1.893-20.283 4.791-3.17 1.464-6.215 3.221-8.996 5.335-2.787 2.104-5.332 4.531-7.513 7.258l-.798 1.036-.762 1.062-1.456 2.181L63.016 86.91l-.732 1.098c-.249.364-.513.717-.768 1.078-2.098 2.838-4.581 5.382-7.322 7.597-2.738 2.225-5.752 4.091-8.907 5.656-6.326 3.108-13.273 4.917-20.302 5.383-.877.068-1.758.095-2.639.121l-2.632.038-57.8.964-.011-.755 57.807-.834 2.622-.032c.872-.022 1.741-.049 2.611-.113 6.954-.445 13.829-2.219 20.093-5.28 3.124-1.54 6.107-3.379 8.816-5.57 2.713-2.181 5.169-4.687 7.245-7.482l.76-1.06.728-1.087 42.574-63.215 1.468-2.185.771-1.07.808-1.044c2.205-2.744 4.775-5.184 7.584-7.295 2.806-2.121 5.872-3.882 9.064-5.348 6.401-2.9 13.374-4.502 20.391-4.77.877-.045 1.755-.038 2.632-.053L250.352.258V.254z"/><path d="M250.352.254L147.197 4.037l-1.321.053-1.319.083c-3.509.281-6.997.866-10.391 1.804s-6.7 2.193-9.834 3.799a48.96 48.96 0 0 0-4.569 2.636c-1.47.966-2.889 2.012-4.24 3.136-2.699 2.251-5.133 4.829-7.158 7.705l-.741 1.089c-.243.366-.468.745-.704 1.115L64.889 92.061l-.373.551-.376.551-.789 1.076-.411.525c-2.196 2.793-4.762 5.29-7.588 7.439-1.413 1.074-2.888 2.066-4.411 2.976-.385.221-.76.458-1.151.668l-1.168.638-1.187.602c-.396.2-.802.379-1.202.571-1.611.742-3.26 1.404-4.937 1.984a55.32 55.32 0 0 1-5.113 1.471c-3.451.827-6.986 1.289-10.528 1.448l-63.479 2.353-.027-.755 63.481-2.211c3.507-.148 7.003-.599 10.42-1.408a54.91 54.91 0 0 0 5.06-1.444c1.66-.57 3.292-1.221 4.886-1.951l1.19-.562 1.175-.593 1.157-.628c.389-.206.758-.44 1.139-.659 1.508-.896 2.968-1.874 4.368-2.93 2.798-2.116 5.335-4.576 7.509-7.328l.408-.515.389-.53.391-.53.739-1.087 1.058-1.672 41.114-64.828.712-1.121.751-1.098c2.048-2.895 4.509-5.488 7.231-7.748a46.69 46.69 0 0 1 4.273-3.148c1.483-.968 3.025-1.84 4.602-2.642 3.154-1.608 6.483-2.861 9.892-3.797s6.916-1.515 10.442-1.789l1.325-.081c.441-.028.883-.032 1.324-.051L250.348.254h.004z"/><path d="M250.352.254L146.357 6.238l-2.654.247c-3.53.411-7.023 1.149-10.403 2.242-1.691.545-3.357 1.166-4.983 1.879a52.01 52.01 0 0 0-4.756 2.395 45.09 45.09 0 0 0-8.566 6.286c-2.588 2.425-4.873 5.182-6.716 8.212L68.774 94.131l-1.023 1.73-.362.566a38.67 38.67 0 0 1-3.206 4.312c-2.332 2.722-5.018 5.138-7.954 7.191s-6.088 3.793-9.396 5.169a54.41 54.41 0 0 1-5.049 1.824c-1.715.517-3.453.949-5.209 1.3a54.31 54.31 0 0 1-5.309.795c-1.783.185-3.572.243-5.345.356L-38.07 121.1l-.043-.752 64.005-3.584c1.779-.109 3.553-.164 5.315-.341 1.764-.168 3.517-.433 5.254-.776a55.46 55.46 0 0 0 5.156-1.276c1.694-.513 3.364-1.113 4.998-1.792a49 49 0 0 0 9.301-5.09c2.905-2.022 5.564-4.402 7.871-7.083 1.153-1.342 2.217-2.761 3.171-4.248l.359-.558 1.021-1.717 39.658-66.553c1.866-3.053 4.175-5.827 6.79-8.263a45.45 45.45 0 0 1 8.635-6.306c1.553-.881 3.153-1.681 4.786-2.398 1.638-.713 3.313-1.336 5.013-1.879 3.4-1.091 6.911-1.825 10.456-2.23.887-.106 1.776-.175 2.666-.243L250.352.254z"/><path d="M250.352.254L148.238 8.272l-5.347.583c-7.084 1.102-13.967 3.604-20.008 7.467-3.02 1.927-5.816 4.21-8.278 6.81-1.23 1.3-2.374 2.683-3.415 4.138-.521.728-1.015 1.476-1.481 2.238-.225.387-.468.762-.679 1.159l-.649 1.178L71.708 97.82l-.983 1.774-.698 1.163-.37.569-.37.568-.389.555a39.71 39.71 0 0 1-3.417 4.21c-2.464 2.649-5.273 4.969-8.311 6.929-1.517.981-3.087 1.882-4.7 2.697s-3.275 1.53-4.964 2.17-3.413 1.192-5.158 1.655a56.66 56.66 0 0 1-5.3 1.123c-1.783.286-3.581.5-5.381.611l-69.867 5.495-.059-.753 69.88-5.342c1.788-.106 3.564-.311 5.33-.593a55.93 55.93 0 0 0 5.247-1.1c1.728-.453 3.434-1 5.107-1.625s3.317-1.334 4.915-2.136 3.151-1.689 4.653-2.657c3.005-1.93 5.788-4.217 8.226-6.827 1.219-1.304 2.353-2.689 3.383-4.147l.385-.548.732-1.121.691-1.147.981-1.762 36.818-65.897.655-1.183c.211-.398.458-.777.686-1.166.474-.768.972-1.521 1.5-2.253 1.053-1.466 2.21-2.857 3.451-4.165 2.487-2.614 5.305-4.906 8.348-6.839 6.087-3.872 13.009-6.371 20.126-7.461 1.779-.276 3.573-.457 5.367-.574L250.352.248v.006z"/><path d="M250.352.254l-97.41 9.701c-3.606.391-7.23.602-10.779 1.323a54.1 54.1 0 0 0-10.361 3.161c-3.33 1.412-6.511 3.174-9.458 5.267-2.936 2.106-5.632 4.557-7.945 7.331-1.157 1.387-2.217 2.853-3.166 4.389-.96 1.53-1.734 3.165-2.583 4.769l-33.852 65.159-.626 1.209c-.209.404-.413.812-.643 1.206-1.777 3.189-4.034 6.105-6.624 8.673-2.587 2.576-5.515 4.795-8.641 6.667-1.564.936-3.175 1.794-4.832 2.553s-3.354 1.428-5.081 2.013c-3.451 1.174-7.026 1.976-10.641 2.436-.904.123-1.811.199-2.715.287l-73.048 7.322-.074-.751 73.069-7.165 2.694-.279c3.577-.448 7.117-1.233 10.533-2.387a52.46 52.46 0 0 0 5.03-1.982c1.641-.747 3.238-1.592 4.785-2.515 3.096-1.846 5.994-4.033 8.554-6.571 2.562-2.532 4.796-5.402 6.556-8.544.228-.389.43-.791.64-1.191l.626-1.204 33.994-65.087c.849-1.598 1.634-3.246 2.607-4.787.959-1.547 2.032-3.023 3.2-4.419 2.338-2.791 5.057-5.252 8.015-7.365 2.969-2.1 6.171-3.865 9.522-5.276 3.354-1.398 6.852-2.449 10.416-3.153 3.568-.717 7.203-.921 10.805-1.304l97.429-9.49.004.006z"/><path d="M250.352.254L152.189 12.11l-5.449.666c-1.809.251-3.607.591-5.382 1.027-3.549.87-7.015 2.083-10.307 3.668s-6.409 3.529-9.258 5.814c-2.84 2.293-5.402 4.936-7.537 7.895-1.068 1.478-2.029 3.034-2.866 4.653-.219.4-.406.817-.604 1.228l-.596 1.236-32.311 66.759-.598 1.24-.298.623-.321.613-.323.611-.343.6-.345.6-.366.587c-1.956 3.127-4.377 5.954-7.109 8.422a44.91 44.91 0 0 1-4.317 3.444 49.28 49.28 0 0 1-4.696 2.902c-1.617.879-3.283 1.672-4.985 2.374-1.704.696-3.445 1.3-5.213 1.817s-3.558.944-5.368 1.283l-1.36.236-1.366.2-2.734.33-76.342 9.241-.091-.749 76.367-9.082 2.721-.323 1.353-.194 1.347-.231c1.79-.332 3.566-.751 5.315-1.258s3.473-1.102 5.16-1.787a51.34 51.34 0 0 0 4.936-2.336c1.602-.866 3.154-1.821 4.651-2.861a44.72 44.72 0 0 0 4.273-3.395c2.705-2.434 5.1-5.219 7.037-8.299l.362-.577.683-1.182.319-.602.317-.603.896-1.85 32.454-66.691.6-1.238c.2-.413.391-.83.612-1.234.847-1.632 1.82-3.198 2.9-4.687 2.158-2.978 4.744-5.635 7.607-7.937 2.871-2.293 6.014-4.236 9.323-5.827s6.798-2.798 10.364-3.663a53.08 53.08 0 0 1 5.407-1.019l5.456-.655L250.35.254h.002z"/><path d="M250.352.254l-101.62 14.443-1.371.196-1.364.23a54.85 54.85 0 0 0-5.385 1.276c-3.541 1.034-6.986 2.417-10.222 4.193-3.235 1.77-6.28 3.895-9.012 6.373-2.726 2.48-5.132 5.32-7.068 8.456a35.66 35.66 0 0 0-2.532 4.906l-30.692 68.332-.853 1.906-.308.627c-.822 1.67-1.777 3.276-2.843 4.8-2.132 3.053-4.711 5.786-7.581 8.15-1.436 1.184-2.943 2.278-4.507 3.284-1.568 1-3.192 1.909-4.862 2.728-3.339 1.636-6.854 2.914-10.465 3.803a56.25 56.25 0 0 1-5.469 1.07l-82.394 11.697-.106-.747 82.419-11.524a55.61 55.61 0 0 0 5.417-1.047c3.575-.872 7.056-2.129 10.362-3.74a49.47 49.47 0 0 0 4.815-2.689c1.549-.993 3.041-2.07 4.464-3.238 2.841-2.333 5.394-5.024 7.505-8.034 1.055-1.503 2-3.085 2.815-4.732l.306-.617.851-1.893 30.838-68.268c.722-1.708 1.585-3.363 2.564-4.94 1.958-3.159 4.388-6.014 7.137-8.505 5.52-4.972 12.239-8.539 19.359-10.58a55.33 55.33 0 0 1 5.411-1.27l1.372-.228c.456-.072.917-.13 1.375-.194L250.352.25v.004z"/><path d="M250.352.254l-99.546 16.291-2.764.449-1.374.26-1.365.294a54.66 54.66 0 0 0-5.377 1.525c-3.529 1.2-6.932 2.776-10.102 4.735s-6.124 4.272-8.716 6.944-4.82 5.703-6.524 9.012c-.423.828-.821 1.668-1.179 2.529l-1.068 2.587-27.927 67.295-.536 1.298-.272.649-.292.642c-.189.43-.404.849-.615 1.27-.204.424-.44.832-.664 1.243a37.44 37.44 0 0 1-3.115 4.697c-2.305 2.972-5.039 5.601-8.041 7.856a48.21 48.21 0 0 1-9.716 5.659c-3.441 1.506-7.041 2.642-10.72 3.395l-1.383.264c-.46.089-.924.151-1.387.228l-85.713 14.079-.121-.745 85.741-13.89 1.377-.225 1.37-.259c3.643-.739 7.209-1.854 10.616-3.338 3.409-1.479 6.649-3.349 9.622-5.576s5.679-4.815 7.962-7.746c1.141-1.464 2.175-3.012 3.085-4.629.223-.406.455-.807.659-1.226.209-.414.423-.827.609-1.252l.291-.632c.094-.211.179-.428.27-.643l.536-1.291 28.068-67.238 1.075-2.591c.362-.864.766-1.713 1.194-2.547 1.727-3.334 3.977-6.384 6.594-9.069s5.594-5.01 8.784-6.969 6.617-3.538 10.162-4.736c1.774-.6 3.577-1.106 5.403-1.521l1.374-.292 1.379-.259L250.35.252l.002.002z"/><path d="M250.352.254L150.051 18.85c-3.718.634-7.371 1.644-10.874 3.036s-6.857 3.165-9.943 5.329c-3.087 2.159-5.921 4.687-8.345 7.571s-4.43 6.116-5.867 9.594L87.75 115.866l-.504 1.33c-.081.223-.172.444-.266.661l-.277.656c-1.519 3.491-3.617 6.716-6.115 9.581s-5.398 5.374-8.547 7.497a49.92 49.92 0 0 1-10.096 5.229c-1.773.679-3.587 1.255-5.422 1.738-.457.13-.921.232-1.381.345s-.924.211-1.39.31l-.696.145-.7.126-1.396.257-89.139 16.613-.138-.741 89.177-16.431 1.39-.253.694-.124.691-.143 1.377-.302 1.368-.338c1.819-.476 3.613-1.042 5.369-1.71 3.513-1.336 6.881-3.057 9.999-5.153s5.992-4.565 8.464-7.392 4.551-6.002 6.056-9.442l.276-.648a13 13 0 0 0 .264-.653l.504-1.319 27.427-71.44c1.456-3.506 3.486-6.763 5.933-9.658s5.305-5.436 8.413-7.601 6.482-3.946 10.003-5.335 7.194-2.397 10.926-3.025L250.352.258V.254z"/><path d="M250.352.254l-101.04 20.952c-3.726.811-7.372 2.01-10.837 3.601s-6.755 3.572-9.735 5.948c-2.983 2.37-5.674 5.118-7.898 8.211s-3.977 6.518-5.124 10.156l-24.519 70.392a35.24 35.24 0 0 1-2.215 5.319c-1.762 3.421-4.073 6.55-6.764 9.296s-5.749 5.123-9.037 7.11c-3.294 1.981-6.822 3.563-10.473 4.753-1.826.595-3.685 1.091-5.562 1.491l-95.427 19.812-.153-.74 95.463-19.617a54.47 54.47 0 0 0 5.511-1.465c3.617-1.17 7.111-2.728 10.373-4.681 3.256-1.959 6.286-4.305 8.95-7.013s4.951-5.791 6.698-9.165c.873-1.687 1.609-3.438 2.2-5.249l24.662-70.343c1.162-3.655 2.934-7.118 5.185-10.224s4.962-5.87 7.965-8.248c3.004-2.383 6.317-4.365 9.8-5.959s7.146-2.787 10.89-3.593L250.35.25l.002.004z"/><path d="M250.352.254l-99.614 22.88c-3.687.826-7.292 2.027-10.712 3.629-3.423 1.596-6.664 3.584-9.613 5.94s-5.607 5.084-7.805 8.15-3.932 6.465-5.056 10.065L95.33 121.321l-.853 2.716c-.151.451-.317.898-.475 1.347l-.534 1.327c-1.494 3.508-3.562 6.763-6.041 9.652s-5.36 5.432-8.498 7.585-6.541 3.92-10.086 5.297c-1.773.689-3.585 1.282-5.42 1.778l-1.383.353-1.389.315-91.299 21.023-.168-.736 91.347-20.834 1.381-.31 1.37-.347a53.2 53.2 0 0 0 5.369-1.749c3.513-1.357 6.879-3.097 9.99-5.218s5.958-4.631 8.414-7.48 4.502-6.057 5.983-9.514c.183-.434.353-.872.528-1.308l.472-1.329.855-2.702 22.368-70.361c1.141-3.627 2.898-7.056 5.119-10.137s4.903-5.825 7.873-8.188 6.233-4.353 9.674-5.952 7.064-2.8 10.766-3.621L250.356.256l-.004-.002z"/><path d="M250.352.254l-98.839 24.935c-3.66.898-7.227 2.172-10.605 3.842s-6.565 3.717-9.45 6.139-5.465 5.206-7.575 8.324-3.741 6.554-4.756 10.175l-20.85 73.569-.434 1.359-.492 1.338c-1.387 3.542-3.36 6.844-5.756 9.789s-5.207 5.552-8.286 7.773-6.433 4.053-9.941 5.503c-1.755.724-3.547 1.353-5.368 1.885l-1.372.381-1.379.341-90.586 22.909-.185-.732 90.639-22.722 1.37-.338 1.358-.375c1.804-.525 3.579-1.142 5.317-1.855 3.473-1.427 6.792-3.234 9.845-5.422s5.83-4.759 8.205-7.663 4.324-6.159 5.701-9.648l.489-1.319.43-1.338.773-2.719 20.227-70.801c1.03-3.65 2.682-7.118 4.816-10.25s4.736-5.937 7.641-8.363 6.117-4.485 9.513-6.152 6.984-2.944 10.658-3.836L250.35.252l.002.002z"/><path d="M250.352.254L152.34 27.229c-3.632.97-7.162 2.317-10.492 4.055s-6.464 3.853-9.279 6.339c-2.816 2.479-5.316 5.329-7.335 8.493s-3.543 6.639-4.447 10.281l-17.919 71.209-.687 2.746c-.123.456-.262.911-.392 1.366l-.451 1.349c-1.28 3.572-3.151 6.92-5.464 9.92s-5.051 5.669-8.065 7.958c-3.02 2.285-6.322 4.189-9.788 5.71a52.4 52.4 0 0 1-5.313 1.992l-1.358.41-1.368.37-89.83 24.778-.2-.728 89.886-24.592 1.358-.366 1.345-.402a52.68 52.68 0 0 0 5.262-1.96c3.432-1.497 6.702-3.374 9.692-5.626s5.698-4.885 7.986-7.846 4.143-6.257 5.411-9.776l.447-1.329.389-1.347.691-2.733 18.068-71.174c.919-3.668 2.466-7.176 4.506-10.356 2.039-3.185 4.563-6.046 7.401-8.535s5.992-4.616 9.343-6.352 6.899-3.085 10.544-4.051L250.35.26l.002-.006z"/><path d="M250.352.254l-97.141 29.002a53.22 53.22 0 0 0-5.305 1.847c-1.732.713-3.426 1.521-5.066 2.423-3.28 1.804-6.356 3.991-9.101 6.537s-5.164 5.448-7.086 8.66-3.341 6.72-4.13 10.377l-15.744 71.512-.604 2.757c-.106.46-.234.915-.349 1.374l-.408 1.358c-1.167 3.599-2.937 6.992-5.161 10.047s-4.885 5.784-7.838 8.139-6.205 4.326-9.628 5.915c-1.711.797-3.468 1.497-5.254 2.103l-1.347.435-1.355.399-89.026 26.635-.215-.723 89.086-26.45 1.347-.393 1.334-.43a51.86 51.86 0 0 0 5.203-2.068c3.388-1.566 6.605-3.514 9.533-5.831 2.922-2.321 5.558-5.012 7.76-8.026s3.955-6.353 5.113-9.899l.406-1.338.347-1.355 16.501-74.231c.804-3.685 2.241-7.227 4.186-10.456s4.387-6.152 7.153-8.705 5.862-4.748 9.163-6.554c1.651-.904 3.353-1.711 5.094-2.423s3.525-1.323 5.332-1.844L250.354.252l-.002.002z"/><path d="M250.352.254l-96.216 31.013c-1.785.559-3.538 1.21-5.251 1.955a49.78 49.78 0 0 0-4.996 2.529c-3.23 1.874-6.243 4.127-8.914 6.737s-5.005 5.567-6.828 8.824-3.132 6.797-3.805 10.465l-13.56 71.752-.519 2.767c-.088.462-.203.921-.305 1.379l-.364 1.366c-1.055 3.623-2.721 7.058-4.851 10.166s-4.715 5.899-7.599 8.32c-2.89 2.417-6.083 4.462-9.46 6.123-1.689.832-3.424 1.568-5.192 2.21l-1.332.464-1.343.426-88.179 28.477-.232-.719 88.245-28.294 1.334-.42 1.321-.457c1.751-.632 3.47-1.357 5.141-2.176 3.343-1.638 6.505-3.653 9.365-6.034s5.413-5.137 7.525-8.201 3.76-6.446 4.805-10.017l.362-1.347.304-1.361.522-2.753L124.04 61.72c.687-3.699 2.015-7.273 3.86-10.547s4.2-6.255 6.894-8.871 5.726-4.878 8.977-6.754c1.624-.938 3.305-1.781 5.024-2.53a52.53 52.53 0 0 1 5.275-1.953L250.352.256V.254z"/><path d="M250.352.254L155.104 33.26a52.06 52.06 0 0 0-5.19 2.064 49.1 49.1 0 0 0-4.923 2.636c-3.177 1.944-6.124 4.265-8.718 6.935s-4.839 5.684-6.56 8.984-2.917 6.869-3.473 10.545l-11.801 74.692c-.072.464-.176.923-.263 1.385-.098.46-.213.915-.32 1.374-.936 3.643-2.495 7.117-4.53 10.276s-4.538 6.012-7.353 8.496c-2.82 2.483-5.954 4.598-9.284 6.333-1.664.868-3.377 1.639-5.128 2.319l-1.319.492-1.33.455-87.29 30.307-.247-.713 87.36-30.124 1.321-.449 1.306-.485a50.99 50.99 0 0 0 5.077-2.284c3.296-1.707 6.4-3.793 9.19-6.24s5.262-5.261 7.279-8.375 3.56-6.534 4.49-10.125l.319-1.353c.087-.455.189-.908.26-1.367l.44-2.76 11.52-71.903c.57-3.706 1.781-7.31 3.526-10.628s4.009-6.356 6.624-9.033 5.585-5.008 8.783-6.956c1.598-.974 3.252-1.853 4.952-2.638a52.25 52.25 0 0 1 5.217-2.062L250.356.252l-.004.002z"/><path d="M250.352.254l-94.233 34.987c-3.494 1.262-6.854 2.9-9.973 4.917s-6 4.403-8.515 7.133-4.665 5.799-6.282 9.139-2.696 6.935-3.134 10.616l-9.52 74.797c-.025.233-.064.465-.102.695l-.115.694c-.079.463-.185.919-.276 1.38-.813 3.662-2.264 7.172-4.201 10.38s-4.353 6.122-7.096 8.669-5.82 4.735-9.099 6.541a50.53 50.53 0 0 1-5.058 2.428l-1.304.521-1.315.483-86.358 32.121-.262-.708 86.43-31.939 1.307-.476 1.29-.511c1.711-.706 3.387-1.502 5.009-2.393 3.245-1.78 6.289-3.933 9.007-6.444s5.106-5.384 7.026-8.547 3.355-6.619 4.164-10.227l.276-1.359.113-.683a11.14 11.14 0 0 0 .102-.687l.354-2.764 9.322-72.009c.451-3.712 1.546-7.342 3.185-10.701s3.809-6.452 6.345-9.192 5.437-5.138 8.577-7.156 6.518-3.659 10.027-4.918L250.348.258l.004-.004z"/><path d="M250.352.254l-93.169 36.948c-3.455 1.338-6.768 3.047-9.828 5.135s-5.869 4.538-8.301 7.329-4.487 5.912-5.994 9.29-2.47 6.995-2.789 10.679l-7.235 74.835c-.092.929-.234 1.855-.402 2.774-.688 3.678-2.03 7.222-3.864 10.477s-4.16 6.229-6.831 8.841-5.681 4.868-8.907 6.748c-1.613.939-3.279 1.787-4.987 2.54l-1.289.547-1.3.509-85.383 33.919-.277-.702 85.46-33.739 1.292-.504 1.275-.54a49.63 49.63 0 0 0 4.937-2.502c3.192-1.851 6.173-4.074 8.816-6.65s4.943-5.504 6.764-8.712c1.815-3.206 3.145-6.699 3.832-10.322.168-.906.309-1.818.402-2.735l7.395-74.816c.331-3.714 1.306-7.369 2.836-10.765 1.528-3.402 3.604-6.544 6.056-9.345s5.283-5.267 8.364-7.354 6.413-3.8 9.882-5.136L250.356.25l-.004.004z"/><path d="M250.352.254L158.29 39.149c-3.413 1.415-6.675 3.195-9.673 5.352s-5.733 4.676-8.078 7.525-4.3 6.023-5.696 9.437-2.238 7.05-2.436 10.731l-4.775 72.029-.181 2.776c-.06.928-.172 1.857-.311 2.777-.568 3.688-1.785 7.265-3.517 10.564s-3.966 6.331-6.556 9.005-5.536 5.004-8.705 6.954a49.71 49.71 0 0 1-4.911 2.649l-1.272.575-1.285.538-84.364 35.701-.293-.697 84.445-35.523 1.277-.53 1.259-.566c1.667-.779 3.292-1.649 4.862-2.61 3.137-1.923 6.05-4.213 8.616-6.853s4.775-5.624 6.49-8.875 2.922-6.774 3.49-10.407c.14-.908.251-1.819.314-2.738l5.114-74.792a33.27 33.27 0 0 1 2.481-10.82c1.417-3.438 3.393-6.635 5.758-9.494 2.366-2.864 5.123-5.395 8.141-7.554s6.302-3.944 9.728-5.355L250.356.252l-.004.002z"/><path d="M250.352.254L159.52-41.744l-1.115-.489-.56-.24-.566-.225-2.281-.849-1.156-.381-1.165-.355c-3.114-.919-6.312-1.542-9.538-1.895-6.455-.693-13.03-.294-19.339 1.227a56.56 56.56 0 0 0-4.671 1.355c-1.534.528-3.043 1.123-4.524 1.785l-1.104.51-1.091.542L35.778-3.007C29.954-.024 23.558 1.82 17.057 2.524S3.923 2.833-2.442 1.297C-5.627.535-8.736-.533-11.73-1.865l-26.594-12.277.317-.685 26.557 12.345C-8.502-1.16-5.432-.099-2.289.661 3.997 2.194 10.553 2.598 16.989 1.92c6.435-.683 12.76-2.487 18.533-5.427l76.725-37.571 1.096-.542 1.114-.511c1.492-.662 3.014-1.257 4.558-1.785 1.547-.519 3.118-.966 4.705-1.351 6.351-1.515 12.961-1.9 19.446-1.187 3.241.362 6.454.996 9.582 1.927l1.17.358 1.16.385c.768.277 1.536.549 2.291.859l.568.226.562.242c.373.164.753.315 1.119.492L250.346.254h.006z"/><path d="M250.352.254l-89.426-38.935-4.485-1.898-4.618-1.521-4.738-1.098-2.399-.396-2.415-.279c-6.455-.615-13.018-.143-19.303 1.453-.788.191-1.564.425-2.343.647l-1.158.368c-.387.121-.766.264-1.149.394-1.525.545-3.032 1.145-4.498 1.834-1.47.679-2.889 1.466-4.336 2.21L35.969 1.352C30.235 4.49 23.892 6.494 17.417 7.36S4.31 7.994-2.087 6.624c-.802-.162-1.594-.368-2.387-.562l-1.183-.326c-.394-.106-.783-.236-1.175-.353-1.56-.491-3.105-1.032-4.613-1.67l-26.84-11.667.302-.693 26.8 11.726c1.487.632 3.011 1.172 4.551 1.659.387.117.77.247 1.16.351l1.168.325c.783.194 1.566.4 2.356.562 6.317 1.37 12.875 1.611 19.285.774S30.016 3.945 35.706.85l73.608-38.142c1.446-.74 2.876-1.527 4.359-2.208 1.477-.691 2.998-1.291 4.533-1.836l1.159-.394 1.166-.368c.783-.225 1.566-.457 2.358-.645 6.326-1.591 12.925-2.047 19.41-1.415.811.07 1.619.185 2.426.287.806.126 1.611.245 2.411.404 1.602.302 3.193.664 4.759 1.115s3.118.951 4.637 1.54c1.522.583 3.002 1.27 4.492 1.915L250.352.252v.002z"/><path d="M250.352.254l-93.599-38.293-1.138-.43-4.636-1.46-4.748-1.032-4.821-.611c-6.458-.53-13.012.023-19.27 1.702-1.568.409-3.107.917-4.628 1.474s-3.011 1.193-4.47 1.898l-.547.262-.539.277c-.359.189-.723.364-1.074.566l-2.13 1.179L36.178 5.758c-5.649 3.28-11.943 5.431-18.393 6.44s-13.082.925-19.504-.298c-.804-.145-1.6-.328-2.398-.508-.792-.2-1.587-.391-2.372-.623-1.572-.449-3.126-.959-4.649-1.557L-38.215-1.844l.287-.698 27.042 11.116c1.5.594 3.036 1.102 4.586 1.549.774.232 1.558.423 2.341.621.787.177 1.573.36 2.368.506 6.343 1.223 12.899 1.321 19.285.34s12.605-3.091 18.21-6.329l72.673-39.799 2.137-1.178c.353-.202.723-.377 1.083-.568l.545-.279.551-.264a48.86 48.86 0 0 1 4.504-1.9c1.532-.555 3.083-1.062 4.66-1.472 6.301-1.674 12.89-2.215 19.38-1.666a56.5 56.5 0 0 1 4.843.627c1.603.285 3.196.63 4.769 1.049 1.572.426 3.125.919 4.655 1.479l1.141.434L250.352.244v.009z"/><path d="M250.352.254L156.96-35.565l-1.136-.438-1.147-.409-4.665-1.381-4.772-.957-4.837-.53c-6.473-.421-13.026.242-19.259 2.036-3.113.906-6.153 2.074-9.041 3.548-.726.358-1.434.755-2.141 1.149l-2.104 1.23-71.712 41.686c-5.598 3.385-11.867 5.633-18.31 6.735s-13.082 1.106-19.529-.026c-3.224-.562-6.394-1.425-9.467-2.553L-38.5 4.051l.27-.704 27.31 10.539c3.03 1.121 6.16 1.981 9.345 2.544 6.366 1.136 12.931 1.147 19.31.074s12.575-3.28 18.125-6.618l71.814-41.514 2.111-1.229c.713-.394 1.428-.792 2.16-1.153 2.913-1.476 5.975-2.646 9.109-3.548 6.277-1.791 12.865-2.442 19.371-2.002a61.85 61.85 0 0 1 4.86.545 60.05 60.05 0 0 1 4.792.972c1.583.392 3.143.866 4.684 1.398l1.151.413L250.352.254z"/><path d="M250.352.254l-94.118-33.742-2.296-.806-4.685-1.31c-3.16-.736-6.384-1.178-9.624-1.351-6.477-.334-13.014.43-19.221 2.308-1.549.476-3.079 1.015-4.581 1.623a53.45 53.45 0 0 0-4.401 2.055l-1.07.578-1.053.608-2.073 1.274-70.692 43.33c-5.515 3.515-11.733 5.897-18.15 7.133s-13.052 1.37-19.518.37c-1.615-.257-3.222-.562-4.809-.962a56.71 56.71 0 0 1-4.705-1.389l-27.555-9.869.255-.71 27.523 9.931a56.79 56.79 0 0 0 4.643 1.383c1.566.4 3.154.706 4.749.962 6.386 1.002 12.946.885 19.301-.321s12.497-3.544 17.965-7.01l70.797-43.16 2.085-1.274 1.062-.61 1.08-.579a53.42 53.42 0 0 1 4.437-2.059c1.513-.608 3.054-1.147 4.615-1.623 6.248-1.874 12.823-2.625 19.331-2.274 3.254.183 6.493.634 9.667 1.381 1.588.364 3.156.813 4.703 1.327.778.245 1.536.541 2.304.813L250.352.25v.004z"/><path d="M250.352.254l-96.095-32.098-1.161-.374-4.713-1.226-4.801-.802-4.855-.379c-6.488-.221-13.019.657-19.196 2.653-1.542.506-3.064 1.07-4.553 1.713a52.82 52.82 0 0 0-4.366 2.144l-1.058.6-1.04.632c-.69.428-1.36.883-2.047 1.321L36.736 19.469c-5.462 3.614-11.656 6.086-18.063 7.407s-13.05 1.536-19.535.619c-1.621-.238-3.23-.538-4.826-.906s-3.171-.825-4.726-1.334l-27.789-9.275.24-.715 27.768 9.337c1.536.509 3.09.96 4.666 1.33a59.24 59.24 0 0 0 4.766.908 56.64 56.64 0 0 0 19.318-.566c6.341-1.293 12.465-3.719 17.878-7.28l69.84-44.862 2.058-1.321 1.049-.634 1.068-.602a52.7 52.7 0 0 1 4.402-2.149c1.5-.643 3.036-1.208 4.586-1.713 6.221-1.995 12.788-2.859 19.308-2.623 1.631.051 3.259.198 4.878.394a52.91 52.91 0 0 1 4.824.819c1.594.342 3.175.751 4.731 1.244.391.115.778.245 1.163.377L250.356.256l-.004-.002z"/><path d="M250.352.254l-95.75-29.688-2.334-.715c-1.56-.459-3.147-.826-4.743-1.138l-2.404-.415-2.42-.298-4.868-.291c-6.501-.1-13.025.9-19.168 3.027-1.534.538-3.047 1.132-4.523 1.81s-2.918 1.427-4.324 2.242l-1.045.626-1.026.657c-.682.444-1.34.917-2.019 1.372L36.98 24.187c-5.419 3.704-11.601 6.237-18.001 7.627a57.09 57.09 0 0 1-19.555.817c-.406-.059-.813-.102-1.217-.172l-1.213-.2c-.806-.153-1.613-.3-2.411-.487a51.75 51.75 0 0 1-4.745-1.285l-28.03-8.673.224-.721 28.009 8.743c1.543.506 3.107.925 4.688 1.281.789.187 1.585.332 2.381.487l1.198.2c.4.07.802.115 1.204.174a56.45 56.45 0 0 0 19.338-.762c6.335-1.361 12.45-3.848 17.816-7.497l68.858-46.577 2.03-1.372 1.036-.659 1.055-.628c1.416-.817 2.873-1.566 4.36-2.247s3.013-1.274 4.558-1.811c6.188-2.125 12.748-3.114 19.282-2.997 1.633.023 3.265.132 4.89.304.813.077 1.622.196 2.432.306l2.413.423c1.602.315 3.194.691 4.762 1.155.785.223 1.56.485 2.339.723L250.358.254h-.006z"/><path d="M250.352.254l-94.175-26.982-4.707-1.344c-1.572-.428-3.168-.762-4.771-1.045l-1.206-.198-1.209-.17-2.43-.253-2.438-.157-2.443-.042c-6.513.025-13.029 1.155-19.135 3.415-1.524.572-3.026 1.198-4.49 1.912s-2.89 1.495-4.277 2.346l-1.032.651-1.011.683c-.67.462-1.321.951-1.989 1.423l-67.727 48.46c-5.392 3.763-11.556 6.367-17.955 7.822s-13.06 1.797-19.58.993c-1.63-.206-3.251-.476-4.858-.817a63.98 63.98 0 0 1-4.764-1.242L-38.1 27.631l.207-.725 28.242 8.146c1.56.47 3.124.894 4.711 1.24 1.587.34 3.188.61 4.798.819a56.47 56.47 0 0 0 19.363-.936c6.332-1.423 12.431-3.982 17.767-7.688l67.835-48.291 2-1.423 1.021-.685 1.041-.653c1.4-.853 2.84-1.636 4.315-2.353s2.989-1.343 4.524-1.913c6.151-2.261 12.705-3.38 19.25-3.389.819-.008 1.636.023 2.454.047.817.047 1.636.083 2.449.162.817.06 1.629.166 2.442.261l1.215.174c.405.055.807.134 1.211.202 1.611.289 3.213.627 4.792 1.062l4.709 1.357L250.354.254h-.002z"/><path d="M250.352.254l-97.435-25.662-2.375-.617-4.811-.94-2.432-.315-2.443-.198-4.9-.085c-6.532.175-13.044 1.466-19.11 3.895a53.54 53.54 0 0 0-4.451 2.042c-1.449.755-2.856 1.585-4.22 2.48-.685.444-1.349.919-2.011 1.396l-1.957 1.481-64.799 48.768c-.657.494-1.307 1-1.987 1.466-5.394 3.802-11.586 6.404-18.004 7.871-6.424 1.466-13.103 1.81-19.644.996-1.634-.208-3.264-.468-4.873-.825-.404-.079-.804-.183-1.206-.276a28.46 28.46 0 0 1-1.198-.3l-2.379-.63-28.517-7.49.193-.73 28.506 7.563 2.37.634a26 26 0 0 0 1.185.3c.396.092.791.196 1.19.275 1.589.355 3.198.617 4.813.827 6.464.819 13.069.496 19.427-.938 6.35-1.436 12.476-3.995 17.816-7.737.672-.46 1.317-.959 1.971-1.447l64.916-48.613 1.966-1.481c.668-.479 1.338-.957 2.03-1.402 1.378-.898 2.796-1.732 4.257-2.489 1.462-.751 2.96-1.432 4.484-2.045 6.111-2.431 12.66-3.71 19.225-3.872 1.642-.047 3.285-.006 4.925.096.82.043 1.637.128 2.454.204.815.1 1.632.191 2.442.321 1.622.249 3.237.557 4.831.955.798.189 1.587.419 2.381.625L250.352.252v.002z"/><path d="M250.352.254l-98.159-23.618-2.393-.568c-1.598-.36-3.215-.628-4.839-.84l-2.441-.264-2.453-.147c-1.636-.064-3.275-.068-4.911.017-6.539.311-13.037 1.744-19.057 4.319-1.502.651-2.974 1.368-4.407 2.155s-2.821 1.661-4.164 2.593a44.77 44.77 0 0 0-1.976 1.455l-1.924 1.53-63.722 50.438c-.64.521-1.306 1.01-1.972 1.496-5.383 3.84-11.558 6.512-17.982 8.02S6.833 48.737.275 47.952c-1.641-.189-3.27-.468-4.886-.802l-1.209-.266-1.202-.294-31.126-7.474.177-.734 31.111 7.546 1.19.294c.396.096.796.175 1.194.266 1.596.334 3.205.613 4.826.804 6.481.791 13.099.426 19.461-1.053s12.467-4.104 17.793-7.884c1.33-.944 2.587-1.991 3.885-2.998l61.907-48.761 1.934-1.53c.654-.5 1.313-.996 1.994-1.46 1.356-.936 2.755-1.812 4.2-2.602a52.99 52.99 0 0 1 4.443-2.159c6.065-2.578 12.601-4 19.174-4.297 1.643-.081 3.29-.074 4.935-.004.823.026 1.644.094 2.464.155.819.083 1.638.157 2.453.272 1.63.217 3.255.491 4.86.857.804.174 1.6.387 2.398.576L250.352.254z"/><path d="M250.352.254L150.176-21.603l-1.208-.251-4.873-.73-4.918-.298c-1.644-.021-3.287.006-4.927.132l-4.894.562-4.826.991-4.718 1.415-4.564 1.849c-1.491.691-2.943 1.459-4.356 2.291l-1.053.638-1.036.664-1.013.698-.996.723-3.826 3.108-60.77 50.58-1.905 1.583-.979.766-1.002.736c-5.394 3.865-11.597 6.533-18.04 8.046A56.82 56.82 0 0 1 .527 53.002a59.76 59.76 0 0 1-4.902-.815l-4.832-1.057-28.97-6.299.162-.738 33.777 7.441c1.602.34 3.217.611 4.843.817 6.501.796 13.142.441 19.525-1.044 6.377-1.483 12.514-4.106 17.852-7.91l.992-.725.968-.755 1.898-1.57 60.892-50.434c1.271-1.042 2.517-2.134 3.85-3.112.336-.242.663-.494 1.006-.726l1.023-.7 1.045-.668c.347-.225.707-.426 1.062-.642a49.99 49.99 0 0 1 4.392-2.296c1.504-.685 3.038-1.302 4.596-1.851a56.86 56.86 0 0 1 4.749-1.411c1.602-.404 3.224-.719 4.854-.983s3.275-.434 4.921-.555 3.299-.145 4.95-.121 3.3.136 4.941.311a52.21 52.21 0 0 1 4.894.745c.406.074.81.164 1.212.255l1.207.268L250.352.256V.254z"/><path d="M250.352.254L150.498-19.32l-2.433-.459-4.913-.608-4.947-.172-4.943.262c-6.566.649-13.037 2.432-18.935 5.393-.739.364-1.46.764-2.183 1.16l-1.066.627c-.356.208-.7.436-1.049.653-1.388.889-2.731 1.847-4.018 2.878l-.953.787-.928.817-61.632 53.942c-1.239 1.106-2.547 2.148-3.907 3.104-5.439 3.853-11.69 6.489-18.169 7.973-6.486 1.487-13.235 1.814-19.838.968-1.651-.213-3.29-.515-4.915-.849l-34.1-6.661.145-.74 34.086 6.746c1.617.336 3.232.638 4.864.853 6.524.851 13.199.543 19.618-.911 6.413-1.453 12.597-4.046 17.98-7.839 1.349-.942 2.638-1.964 3.87-3.057l61.76-53.797.936-.819.962-.793c1.3-1.034 2.655-1.998 4.056-2.891l1.059-.655 1.075-.628c.729-.398 1.455-.798 2.202-1.164 5.945-2.966 12.454-4.742 19.055-5.38a60.64 60.64 0 0 1 4.968-.253 57.45 57.45 0 0 1 4.969.185c1.653.127 3.3.343 4.934.621.819.13 1.628.308 2.441.466L250.354.252l-.002.002z"/><path d="M250.352.254L149.729-17.271l-1.225-.215-1.228-.189-4.945-.487-4.969-.049-4.953.394c-6.571.823-13.018 2.787-18.844 5.936a48.22 48.22 0 0 0-4.237 2.583c-1.363.94-2.676 1.951-3.927 3.031-.632.534-1.228 1.108-1.839 1.67l-60.498 55.68c-1.247 1.113-2.568 2.142-3.936 3.102a48.65 48.65 0 0 1-4.245 2.663 53.3 53.3 0 0 1-4.498 2.204c-1.53.67-3.102 1.242-4.69 1.759-.398.123-.792.26-1.196.374l-1.204.345-1.213.313c-.404.108-.811.198-1.219.289-6.517 1.47-13.293 1.766-19.917.885-1.656-.221-3.294-.547-4.93-.821L-38.34 56.23l.13-.744 34.35 6.048c1.64.279 3.262.606 4.896.828a56.06 56.06 0 0 0 19.695-.828c.404-.089.807-.177 1.206-.283l1.2-.306 1.192-.338c.398-.109.789-.245 1.183-.366 1.572-.508 3.126-1.07 4.641-1.728 1.517-.653 3.003-1.374 4.451-2.168a48.48 48.48 0 0 0 4.2-2.621c1.353-.945 2.658-1.959 3.892-3.055l60.619-55.527c.613-.562 1.215-1.138 1.854-1.676 1.264-1.087 2.591-2.102 3.964-3.046a49.05 49.05 0 0 1 4.274-2.591c5.875-3.157 12.361-5.116 18.966-5.927a60.16 60.16 0 0 1 4.979-.385c1.664-.047 3.33-.028 4.992.06s3.319.266 4.966.502l1.234.193 1.228.219L250.35.256l.002-.002z"/><path d="M250.352.254L148.983-15.208l-1.233-.191-1.238-.157-4.975-.362c-3.326-.083-6.66.108-9.949.611-6.573.998-12.989 3.153-18.736 6.497-2.862 1.687-5.57 3.646-7.994 5.92L45.564 54.521l-.906.87-.932.845a44.85 44.85 0 0 1-3.966 3.095c-5.509 3.846-11.829 6.448-18.372 7.892-6.549 1.444-13.356 1.698-20.001.77l-39.563-6.012.115-.745 39.543 6.108a56.1 56.1 0 0 0 19.776-.715c6.473-1.413 12.729-3.972 18.18-7.758 1.362-.944 2.677-1.957 3.924-3.047l.923-.832c.307-.277.598-.574.9-.861L104.62-3.145c2.449-2.285 5.183-4.253 8.068-5.946 5.796-3.355 12.254-5.504 18.861-6.493 3.305-.498 6.656-.681 9.997-.591 1.67.057 3.338.181 4.998.375l1.243.16 1.238.194L250.356.254h-.004z"/><path d="M250.352.254L150.64-12.816l-4.985-.61-5.011-.217c-1.671-.006-3.345.077-5.009.228l-4.967.674a55 55 0 0 0-9.651 2.68l-4.592 2.008c-1.496.745-2.95 1.57-4.362 2.464a43.78 43.78 0 0 0-7.79 6.265L47.922 58.104 46.6 59.455l-.455.44-1.871 1.702a43.4 43.4 0 0 1-4.022 3.065 50.12 50.12 0 0 1-4.328 2.615l-4.577 2.147c-1.555.651-3.151 1.202-4.76 1.698a52.11 52.11 0 0 1-4.896 1.253c-6.598 1.374-13.45 1.542-20.108.526l-39.884-5.206.098-.749 39.878 5.301c6.596 1.023 13.359.87 19.893-.472 1.632-.334 3.253-.738 4.845-1.228s3.171-1.028 4.711-1.668a52.49 52.49 0 0 0 4.528-2.113 49.2 49.2 0 0 0 4.283-2.574 42.64 42.64 0 0 0 3.979-3.017c.63-.544 1.255-1.096 1.851-1.676l.451-.432.438-.447.879-.895L104.02.426a44.11 44.11 0 0 1 7.864-6.295c1.423-.896 2.89-1.723 4.396-2.47a54.38 54.38 0 0 1 4.624-2.008c3.147-1.183 6.4-2.083 9.709-2.672 1.653-.304 3.32-.519 4.994-.666a54 54 0 0 1 5.034-.217 58.13 58.13 0 0 1 5.031.23c1.674.151 3.334.408 4.996.623L250.348.254h.004z"/><path d="M250.352.254L147.406-11.051l-1.254-.119-1.257-.091-5.037-.081c-3.361.089-6.707.498-9.996 1.187-6.567 1.398-12.905 3.989-18.44 7.791-2.758 1.91-5.324 4.102-7.568 6.603L48.739 63.382a43.29 43.29 0 0 1-3.692 3.489l-.985.804-1.006.775-1.03.743c-.343.247-.7.476-1.051.715-1.413.934-2.875 1.795-4.375 2.581a52.49 52.49 0 0 1-4.619 2.114c-1.57.638-3.175 1.179-4.798 1.663-.809.247-1.632.455-2.451.668-.825.191-1.649.389-2.481.543-3.321.664-6.705 1.004-10.09 1.061-1.694.021-3.387-.03-5.077-.153l-1.266-.11-1.26-.14-42.691-4.665.083-.751 42.678 4.765 1.249.142 1.251.109c1.67.124 3.345.179 5.018.164 3.349-.049 6.696-.375 9.981-1.026.825-.151 1.638-.347 2.454-.532.811-.209 1.625-.411 2.424-.655 1.606-.474 3.196-1.006 4.749-1.632a51.86 51.86 0 0 0 4.57-2.079c1.485-.774 2.93-1.621 4.328-2.542l1.04-.704 1.021-.732.996-.764c.33-.257.649-.528.974-.792 1.283-1.074 2.505-2.219 3.654-3.438l55.251-59.011c2.264-2.512 4.86-4.719 7.641-6.635 5.587-3.817 11.966-6.406 18.569-7.795a56.2 56.2 0 0 1 10.046-1.17 53.87 53.87 0 0 1 5.06.092c.421.021.842.057 1.263.094s.841.068 1.26.121L250.348.246l.004.008z"/><path d="M250.352.254L146.574-8.949l-1.266-.079-1.266-.051c-1.688-.049-3.381-.03-5.069.07l-5.041.53c-1.672.247-3.328.589-4.97.991s-3.262.887-4.856 1.445l-4.698 1.896-4.485 2.351c-1.448.866-2.854 1.806-4.203 2.819a42.01 42.01 0 0 0-3.862 3.27l-1.775 1.804-.846.942-.837.953L50.356 67.96l-.877.93c-2.383 2.442-5.06 4.587-7.928 6.429-5.758 3.659-12.26 6.086-18.959 7.301a60.18 60.18 0 0 1-5.064.677 59.15 59.15 0 0 1-5.105.211c-1.704.002-3.409-.089-5.102-.245l-45.565-4.004.066-.751 45.555 4.108c1.679.16 3.362.253 5.047.255s3.37-.057 5.049-.196c1.679-.147 3.351-.368 5.009-.659 6.63-1.187 13.067-3.574 18.763-7.174 2.837-1.814 5.486-3.927 7.843-6.331l.868-.917 53.172-59.835.843-.953c.281-.319.557-.642.855-.947a42.74 42.74 0 0 1 1.794-1.815c1.23-1.176 2.54-2.266 3.9-3.285s2.779-1.961 4.241-2.829 2.977-1.644 4.519-2.355 3.122-1.342 4.728-1.896 3.233-1.044 4.886-1.442 3.317-.738 4.998-.983 3.371-.421 5.066-.523a57.28 57.28 0 0 1 5.092-.058l1.271.055 1.27.083L250.352.254z"/><path d="M250.352.254L148.366-6.645c-6.776-.602-13.657.008-20.2 1.853-1.634.466-3.249.996-4.834 1.613s-3.135 1.31-4.652 2.074c-3.026 1.54-5.902 3.385-8.526 5.54a42.66 42.66 0 0 0-3.728 3.463l-.44.46c-.145.155-.283.315-.424.474-.281.317-.568.628-.836.96l-1.638 1.959-49.272 58.743-1.234 1.476c-.138.164-.285.321-.426.481-.566.645-1.16 1.262-1.766 1.87-2.426 2.427-5.164 4.527-8.077 6.333-1.455.906-2.968 1.719-4.511 2.461s-3.121 1.417-4.734 1.995c-1.611.583-3.245 1.1-4.903 1.534-1.658.428-3.336.783-5.026 1.064a56.53 56.53 0 0 1-5.103.596l-1.283.079-1.283.051-2.57.004-.641-.011-.642-.028c-.428-.021-.857-.032-1.283-.068l-2.555-.177-45.891-3.089.051-.753 45.891 3.197 2.545.181c.423.036.845.047 1.27.07l.634.03.636.013c.847.025 1.694.011 2.541.002l1.27-.047c.423-.013.845-.051 1.268-.075 1.689-.121 3.375-.302 5.049-.578a57.3 57.3 0 0 0 4.973-1.042 55.26 55.26 0 0 0 4.852-1.506c1.596-.568 3.156-1.236 4.686-1.962a46.91 46.91 0 0 0 4.464-2.421c2.881-1.776 5.592-3.846 7.992-6.235.6-.598 1.187-1.206 1.747-1.842l.423-.474 50.64-60.092 1.645-1.961c.268-.332.56-.645.843-.966l.43-.476.444-.464c1.184-1.234 2.445-2.395 3.765-3.482 2.649-2.164 5.547-4.016 8.596-5.559 1.528-.766 3.092-1.455 4.685-2.076 1.594-.615 3.22-1.145 4.863-1.61 6.581-1.84 13.499-2.436 20.297-1.817L250.358.256l-.006-.002z"/></g></g><defs><clipPath id="A"><path d="M0 0h250v160H0z"/></clipPath></defs></g></svg>