<svg xmlns="http://www.w3.org/2000/svg" width="512" height="512" fill="none"><defs><clipPath id="a"><rect width="512" height="512" rx="0"/></clipPath></defs><g clip-path="url(#a)"><path fill="#19362C" d="M0 0h512v512H0z" style="mix-blend-mode:passthrough"/><path fill="#FAFAFC" d="m181.726 113.86 1.974-.01q3.254-.01 6.507-.011l4.683-.015q6.351-.019 12.702-.024 3.978-.005 7.955-.012 12.474-.02 24.947-.027 14.345-.007 28.69-.05 11.12-.033 22.24-.034 6.625 0 13.251-.025 6.248-.023 12.494-.01 2.274.002 4.547-.013c27.908-.173 52.092 8.836 72.284 28.371 16.676 17.473 25.491 40.066 25.404 64.09l.021 4.07c.018 3.644.017 7.29.011 10.934q-.002 4.592.01 9.183.018 10.847 0 21.694c-.01 7.42.003 14.838.03 22.257q.032 9.612.022 19.224-.007 5.716.017 11.431.021 5.381-.008 10.762c-.005 1.916.01 3.832.024 5.748-.104 12.445-3.18 24.043-8.656 35.232l-1.164 2.413c-3.705 7.411-8.264 13.746-13.71 19.962l-1.767 2.031c-14.186 15.15-36.537 27.25-57.536 28.103l-3.652.013-2.048.011c-2.252.011-4.503.015-6.755.02l-4.86.018c-5.313.021-10.625.032-15.938.042l-5.506.012q-12.944.03-25.888.042-14.89.016-29.78.076-11.54.045-23.08.05c-4.586.001-9.17.01-13.755.035-4.322.024-8.645.027-12.967.017q-2.36 0-4.72.02c-24.872.207-47.998-8.8-66.185-25.935-15.067-14.983-26.698-36.835-27.693-58.337l-.005-2.908-.013-3.364.002-3.646-.01-3.875a4494 4494 0 0 1-.012-10.495l-.006-6.573q-.014-11.487-.012-22.975-.001-10.669-.026-21.338-.019-9.189-.018-18.378.002-5.475-.013-10.95c-.012-4.08-.007-8.16 0-12.24-.007-1.191-.012-2.382-.018-3.61.084-22.473 7.615-41.945 22.26-58.866l2.008-2.563c14.697-17.982 40.714-29.518 63.718-29.577" style="mix-blend-mode:passthrough"/><path fill="#19362C" d="m190.766 174.797 2.525-.017q2.637-.014 5.275-.02c2.662-.01 5.323-.041 7.985-.073 10.589-.067 20.457-.127 29.387 6.376l2.152 1.535L240 184c4.746 3.164 9.848 2.525 15.44 2.59q2.039.035 4.078.123c9.449.414 14.68-.735 21.984-6.756 8.023-6.286 18.398-5.395 28.084-5.293 2.409.023 4.817.02 7.227.014 20.809.036 39.36 6.122 54.808 20.752 13.517 14.604 19.655 30.897 19.785 50.535l.018 2.02q.044 5.3.057 10.601.012 4.328.082 8.654c.4 25.854-3.014 46.06-21.355 65.648-7.204 7.37-15.535 12.586-25.208 16.112l-2.04.791c-8.996 3.006-18.236 2.697-27.612 2.655a618 618 0 0 0-8.721.052c-11.26.046-20.49.076-29.291-7.697-5.192-4.13-11.294-3.737-17.635-3.638-2.068.024-4.126-.02-6.193-.07-7.773-.054-13.062.836-18.991 6.111-6.533 4.661-13.755 5.256-21.564 5.23l-2.827.015q-2.945.01-5.89-.003c-2.965-.009-5.928.02-8.892.052-20.362.076-37.225-5.154-52.344-19.498-5.596-5.723-9.755-11.906-13.375-19l-.975-1.903c-4.969-10.28-6.11-20.168-6.084-31.496l-.015-4.096q-.014-4.268.003-8.537c.011-3.61-.009-7.218-.038-10.828a983 983 0 0 1-.012-8.447c0-1.966-.017-3.931-.034-5.897.144-18.756 7.93-34.734 20.772-48.136 13.063-12.527 29.42-19.766 47.524-19.863" style="mix-blend-mode:passthrough"/><path fill="#F9FAFC" d="m183 223 .996 2.309C189.756 237.81 197.224 244.823 210 250c3.94 1.319 7.96 1.162 12.066 1.177l2.456.02q4.02.028 8.04.041l2.786.013q7.305.03 14.61.044c5.006.011 10.01.046 15.015.085 3.87.027 7.74.035 11.608.038q2.766.008 5.53.035c15.166.144 28.492-1.288 39.89-12.453 3.738-4.73 6.9-9.837 10-15 8.638 3.997 8.638 3.997 11.811 7.625l1.645 1.79c5.294 8.873 5.041 18.53 4.99 28.543-.01 2.471.02 4.94.051 7.411.044 10.148-.843 18.538-6.186 27.443C340.883 300.057 337 302.514 333 305c-2-2-2-2-3.563-5.5-4.857-9.858-13.22-17.435-23.484-21.264-9.059-2.87-17.96-2.69-27.36-2.67l-5.322-.015q-5.55-.014-11.104.003a1640 1640 0 0 1-14.15-.038 1666 1666 0 0 0-10.975-.012q-2.607 0-5.214-.019C218.018 275.4 206.284 277.261 195 286c-5.512 5.589-9.301 11.65-12 19-7.708-2.168-13.106-8.475-17.09-15.106-2.269-4.723-2.087-9.573-2.113-14.718l-.017-2.609q-.014-2.732-.02-5.464c-.01-2.763-.04-5.526-.072-8.288q-.01-2.663-.016-5.327l-.038-2.472c.032-8.223 1.927-15.329 7.612-21.442C174.416 226.73 178.578 223 183 223" style="mix-blend-mode:passthrough"/><path fill="#F9F9FC" d="m224.082 300.596 2.387-.02c2.591-.02 5.182-.015 7.773-.01l5.432-.015q5.687-.013 11.373.003c4.845.011 9.688-.009 14.532-.038 3.74-.018 7.478-.018 11.217-.012q2.677 0 5.356-.019c2.503-.015 5.005-.004 7.508.013l2.207-.029c5.377.076 9.666 1.487 14.133 4.531 2.799 3.848 3.544 7.371 3.356 12.04-.705 3.89-2.77 6.84-5.976 9.104-3.523 1.267-7.01 1.168-10.71 1.178l-2.538.03c-2.77.03-5.538.043-8.308.054l-5.784.035q-6.064.029-12.128.04c-5.172.01-10.342.058-15.514.115-3.983.038-7.966.048-11.95.051q-2.859.009-5.718.048c-2.672.035-5.34.03-8.012.018l-2.37.056c-5.392-.082-8.114-1.6-12.026-5.286-2.81-3.152-2.658-6.106-2.6-10.163.436-3.642 1.847-5.633 4.278-8.32 4.683-2.903 8.69-3.437 14.082-3.404" style="mix-blend-mode:passthrough"/><path fill="#F8F9FC" d="m224.107 199.741 2.431-.01c2.644-.01 5.287-.003 7.93.003l5.526-.005a3629 3629 0 0 1 11.57.01c4.94.012 9.88.005 14.819-.007q5.703-.009 11.406 0 2.732.003 5.464-.005c2.547-.005 5.093.003 7.64.014l2.273-.012c5.88.047 9.291.866 13.646 4.833 2.546 3.296 2.861 6.164 2.606 10.258-.672 3.503-2.044 5.556-4.418 8.18-4.719 2.936-8.771 3.433-14.205 3.388l-2.427.016c-2.633.013-5.266.005-7.9-.006q-2.756.003-5.513.01-5.77.005-11.54-.017c-4.922-.017-9.845-.007-14.768.01-3.793.012-7.587.008-11.38 0q-2.723-.004-5.445.008c-2.54.008-5.078-.004-7.617-.02l-2.258.018c-4.715-.058-7.962-.874-11.947-3.407-3.811-5.115-4.905-8.662-4-15 4.051-7.522 10.25-8.301 18.107-8.259" style="mix-blend-mode:passthrough"/></g></svg>